<?xml version="1.0" encoding="UTF-8" standalone="no"?>
<!DOCTYPE svg PUBLIC "-//W3C//DTD SVG 1.1//EN"
 "http://www.w3.org/Graphics/SVG/1.1/DTD/svg11.dtd">
<!-- Generated by graphviz version 2.40.1 (20161225.0304)
 -->
<!-- Title: dependencies Pages: 1 -->
<svg width="2633pt" height="211pt"
 viewBox="0.00 0.00 2633.00 211.00" xmlns="http://www.w3.org/2000/svg" xmlns:xlink="http://www.w3.org/1999/xlink">
<g id="graph0" class="graph" transform="scale(1 1) rotate(0) translate(4 207)">
<title>dependencies</title>
<polygon fill="#ffffff" stroke="transparent" points="-4,4 -4,-207 2629,-207 2629,4 -4,4"/>
<text text-anchor="start" x="1291.5091" y="-42.4" font-family="sans-serif" font-weight="bold" font-size="14.00" fill="#000000">Legend</text>
<polygon fill="#ffffb3" stroke="transparent" points="1078.5,-10 1078.5,-30 1098.5,-30 1098.5,-10 1078.5,-10"/>
<text text-anchor="start" x="1102.129" y="-15.4" font-family="sans-serif" font-size="14.00" fill="#000000"> &#160;Declarations</text>
<polygon fill="#8dd3c7" stroke="transparent" points="1191.5,-10 1191.5,-30 1211.5,-30 1211.5,-10 1191.5,-10"/>
<text text-anchor="start" x="1215.2251" y="-15.4" font-family="sans-serif" font-size="14.00" fill="#000000"> &#160;Module</text>
<polygon fill="#80b1d3" stroke="transparent" points="1277.5,-10 1277.5,-30 1297.5,-30 1297.5,-10 1277.5,-10"/>
<text text-anchor="start" x="1301.2812" y="-15.4" font-family="sans-serif" font-size="14.00" fill="#000000"> &#160;Bootstrap</text>
<polygon fill="#fdb462" stroke="transparent" points="1374.5,-10 1374.5,-30 1394.5,-30 1394.5,-10 1374.5,-10"/>
<text text-anchor="start" x="1398.1732" y="-15.4" font-family="sans-serif" font-size="14.00" fill="#000000"> &#160;Providers</text>
<polygon fill="#fb8072" stroke="transparent" points="1470.5,-10 1470.5,-30 1490.5,-30 1490.5,-10 1470.5,-10"/>
<text text-anchor="start" x="1494.2258" y="-15.4" font-family="sans-serif" font-size="14.00" fill="#000000"> &#160;Exports</text>
<g id="clust1" class="cluster">
<title>cluster_AuthModule</title>
<polygon fill="none" stroke="#000000" stroke-dasharray="1,5" points="8,-70 8,-195 2617,-195 2617,-70 8,-70"/>
</g>
<g id="clust2" class="cluster">
<title>cluster_AuthModule_declarations</title>
<polygon fill="none" stroke="#000000" points="1127,-78 1127,-130 2609,-130 2609,-78 1127,-78"/>
</g>
<g id="clust12" class="cluster">
<title>cluster_AuthModule_imports</title>
<polygon fill="none" stroke="#000000" points="334,-78 334,-130 1119,-130 1119,-78 334,-78"/>
</g>
<g id="clust15" class="cluster">
<title>cluster_AuthModule_providers</title>
<polygon fill="none" stroke="#000000" points="16,-78 16,-130 326,-130 326,-78 16,-78"/>
</g>
<!-- LoginComponent -->
<g id="node1" class="node">
<title>LoginComponent</title>
<polygon fill="#ffffb3" stroke="#000000" points="2601.2758,-122 2486.7242,-122 2486.7242,-86 2601.2758,-86 2601.2758,-122"/>
<text text-anchor="middle" x="2544" y="-99.8" font-family="Times,serif" font-size="14.00" fill="#000000">LoginComponent</text>
</g>
<!-- AuthModule -->
<g id="node10" class="node">
<title>AuthModule</title>
<polygon fill="#8dd3c7" stroke="#000000" points="1259.5482,-187 1256.5482,-191 1235.5482,-191 1232.5482,-187 1172.4518,-187 1172.4518,-151 1259.5482,-151 1259.5482,-187"/>
<text text-anchor="middle" x="1216" y="-164.8" font-family="Times,serif" font-size="14.00" fill="#000000">AuthModule</text>
</g>
<!-- LoginComponent&#45;&gt;AuthModule -->
<g id="edge1" class="edge">
<title>LoginComponent&#45;&gt;AuthModule</title>
<path fill="none" stroke="#000000" d="M2544,-122.3228C2544,-145.6602 2544,-183 2544,-183 2544,-183 1269.8067,-183 1269.8067,-183"/>
<polygon fill="#000000" stroke="#000000" points="1269.8067,-179.5001 1259.8067,-183 1269.8066,-186.5001 1269.8067,-179.5001"/>
</g>
<!-- RegisterComponent -->
<g id="node2" class="node">
<title>RegisterComponent</title>
<polygon fill="#ffffb3" stroke="#000000" points="2468.9846,-122 2341.0154,-122 2341.0154,-86 2468.9846,-86 2468.9846,-122"/>
<text text-anchor="middle" x="2405" y="-99.8" font-family="Times,serif" font-size="14.00" fill="#000000">RegisterComponent</text>
</g>
<!-- RegisterComponent&#45;&gt;AuthModule -->
<g id="edge2" class="edge">
<title>RegisterComponent&#45;&gt;AuthModule</title>
<path fill="none" stroke="#000000" d="M2405,-122.1554C2405,-144.3519 2405,-179 2405,-179 2405,-179 1269.7273,-179 1269.7273,-179"/>
<polygon fill="#000000" stroke="#000000" points="1269.7273,-175.5001 1259.7273,-179 1269.7272,-182.5001 1269.7273,-175.5001"/>
</g>
<!-- GoogleSigninComponent -->
<g id="node3" class="node">
<title>GoogleSigninComponent</title>
<polygon fill="#ffffb3" stroke="#000000" points="2322.608,-122 2163.392,-122 2163.392,-86 2322.608,-86 2322.608,-122"/>
<text text-anchor="middle" x="2243" y="-99.8" font-family="Times,serif" font-size="14.00" fill="#000000">GoogleSigninComponent</text>
</g>
<!-- GoogleSigninComponent&#45;&gt;AuthModule -->
<g id="edge3" class="edge">
<title>GoogleSigninComponent&#45;&gt;AuthModule</title>
<path fill="none" stroke="#000000" d="M2243,-122.2843C2243,-143.3211 2243,-175 2243,-175 2243,-175 1269.8004,-175 1269.8004,-175"/>
<polygon fill="#000000" stroke="#000000" points="1269.8004,-171.5001 1259.8004,-175 1269.8003,-178.5001 1269.8004,-171.5001"/>
</g>
<!-- FacebookSigninComponent -->
<g id="node4" class="node">
<title>FacebookSigninComponent</title>
<polygon fill="#ffffb3" stroke="#000000" points="2145.3229,-122 1972.6771,-122 1972.6771,-86 2145.3229,-86 2145.3229,-122"/>
<text text-anchor="middle" x="2059" y="-99.8" font-family="Times,serif" font-size="14.00" fill="#000000">FacebookSigninComponent</text>
</g>
<!-- FacebookSigninComponent&#45;&gt;AuthModule -->
<g id="edge4" class="edge">
<title>FacebookSigninComponent&#45;&gt;AuthModule</title>
<path fill="none" stroke="#000000" d="M2059,-122.308C2059,-142.1455 2059,-171 2059,-171 2059,-171 1269.5482,-171 1269.5482,-171"/>
<polygon fill="#000000" stroke="#000000" points="1269.5482,-167.5001 1259.5482,-171 1269.5482,-174.5001 1269.5482,-167.5001"/>
</g>
<!-- RegisterSocialComponent -->
<g id="node5" class="node">
<title>RegisterSocialComponent</title>
<polygon fill="#ffffb3" stroke="#000000" points="1954.4776,-122 1791.5224,-122 1791.5224,-86 1954.4776,-86 1954.4776,-122"/>
<text text-anchor="middle" x="1873" y="-99.8" font-family="Times,serif" font-size="14.00" fill="#000000">RegisterSocialComponent</text>
</g>
<!-- RegisterSocialComponent&#45;&gt;AuthModule -->
<g id="edge5" class="edge">
<title>RegisterSocialComponent&#45;&gt;AuthModule</title>
<path fill="none" stroke="#000000" d="M1873,-122.2222C1873,-140.8285 1873,-167 1873,-167 1873,-167 1269.6164,-167 1269.6164,-167"/>
<polygon fill="#000000" stroke="#000000" points="1269.6164,-163.5001 1259.6164,-167 1269.6164,-170.5001 1269.6164,-163.5001"/>
</g>
<!-- UserActiveComponent -->
<g id="node6" class="node">
<title>UserActiveComponent</title>
<polygon fill="#ffffb3" stroke="#000000" points="1773.5758,-122 1628.4242,-122 1628.4242,-86 1773.5758,-86 1773.5758,-122"/>
<text text-anchor="middle" x="1701" y="-99.8" font-family="Times,serif" font-size="14.00" fill="#000000">UserActiveComponent</text>
</g>
<!-- UserActiveComponent&#45;&gt;AuthModule -->
<g id="edge6" class="edge">
<title>UserActiveComponent&#45;&gt;AuthModule</title>
<path fill="none" stroke="#000000" d="M1701,-122.0225C1701,-139.3734 1701,-163 1701,-163 1701,-163 1269.8959,-163 1269.8959,-163"/>
<polygon fill="#000000" stroke="#000000" points="1269.896,-159.5001 1259.8959,-163 1269.8959,-166.5001 1269.896,-159.5001"/>
</g>
<!-- AuthHomeComponent -->
<g id="node7" class="node">
<title>AuthHomeComponent</title>
<polygon fill="#ffffb3" stroke="#000000" points="1610.5421,-122 1467.4579,-122 1467.4579,-86 1610.5421,-86 1610.5421,-122"/>
<text text-anchor="middle" x="1539" y="-99.8" font-family="Times,serif" font-size="14.00" fill="#000000">AuthHomeComponent</text>
</g>
<!-- AuthHomeComponent&#45;&gt;AuthModule -->
<g id="edge7" class="edge">
<title>AuthHomeComponent&#45;&gt;AuthModule</title>
<path fill="none" stroke="#000000" d="M1539,-122.0091C1539,-138.0494 1539,-159 1539,-159 1539,-159 1269.5612,-159 1269.5612,-159"/>
<polygon fill="#000000" stroke="#000000" points="1269.5613,-155.5001 1259.5612,-159 1269.5612,-162.5001 1269.5613,-155.5001"/>
</g>
<!-- RecoveryComponent -->
<g id="node8" class="node">
<title>RecoveryComponent</title>
<polygon fill="#ffffb3" stroke="#000000" points="1449.4734,-122 1314.5266,-122 1314.5266,-86 1449.4734,-86 1449.4734,-122"/>
<text text-anchor="middle" x="1382" y="-99.8" font-family="Times,serif" font-size="14.00" fill="#000000">RecoveryComponent</text>
</g>
<!-- RecoveryComponent&#45;&gt;AuthModule -->
<g id="edge8" class="edge">
<title>RecoveryComponent&#45;&gt;AuthModule</title>
<path fill="none" stroke="#000000" d="M1382,-122.1243C1382,-136.7832 1382,-155 1382,-155 1382,-155 1269.6145,-155 1269.6145,-155"/>
<polygon fill="#000000" stroke="#000000" points="1269.6146,-151.5001 1259.6145,-155 1269.6145,-158.5001 1269.6146,-151.5001"/>
</g>
<!-- RecoveryUserComponent -->
<g id="node9" class="node">
<title>RecoveryUserComponent</title>
<polygon fill="#ffffb3" stroke="#000000" points="1296.9003,-122 1135.0997,-122 1135.0997,-86 1296.9003,-86 1296.9003,-122"/>
<text text-anchor="middle" x="1216" y="-99.8" font-family="Times,serif" font-size="14.00" fill="#000000">RecoveryUserComponent</text>
</g>
<!-- RecoveryUserComponent&#45;&gt;AuthModule -->
<g id="edge9" class="edge">
<title>RecoveryUserComponent&#45;&gt;AuthModule</title>
<path fill="none" stroke="#000000" d="M1216,-122.1061C1216,-122.1061 1216,-140.991 1216,-140.991"/>
<polygon fill="#000000" stroke="#000000" points="1212.5001,-140.9909 1216,-150.991 1219.5001,-140.991 1212.5001,-140.9909"/>
</g>
<!-- AuthRoutingModule -->
<g id="node11" class="node">
<title>AuthRoutingModule</title>
<polygon fill="#8dd3c7" stroke="#000000" points="1111.1652,-122 1108.1652,-126 1087.1652,-126 1084.1652,-122 978.8348,-122 978.8348,-86 1111.1652,-86 1111.1652,-122"/>
<text text-anchor="middle" x="1045" y="-99.8" font-family="Times,serif" font-size="14.00" fill="#000000">AuthRoutingModule</text>
</g>
<!-- AuthRoutingModule&#45;&gt;AuthModule -->
<g id="edge10" class="edge">
<title>AuthRoutingModule&#45;&gt;AuthModule</title>
<path fill="none" stroke="#000000" d="M1045,-122.1243C1045,-136.7832 1045,-155 1045,-155 1045,-155 1162.407,-155 1162.407,-155"/>
<polygon fill="#000000" stroke="#000000" points="1162.4071,-158.5001 1172.407,-155 1162.407,-151.5001 1162.4071,-158.5001"/>
</g>
<!-- CommonModule -->
<g id="node12" class="node">
<title>CommonModule</title>
<polygon fill="#8dd3c7" stroke="#000000" points="960.6681,-122 957.6681,-126 936.6681,-126 933.6681,-122 849.3319,-122 849.3319,-86 960.6681,-86 960.6681,-122"/>
<text text-anchor="middle" x="905" y="-99.8" font-family="Times,serif" font-size="14.00" fill="#000000">CommonModule</text>
</g>
<!-- CommonModule&#45;&gt;AuthModule -->
<g id="edge11" class="edge">
<title>CommonModule&#45;&gt;AuthModule</title>
<path fill="none" stroke="#000000" d="M905,-122.0091C905,-138.0494 905,-159 905,-159 905,-159 1162.4293,-159 1162.4293,-159"/>
<polygon fill="#000000" stroke="#000000" points="1162.4294,-162.5001 1172.4293,-159 1162.4293,-155.5001 1162.4294,-162.5001"/>
</g>
<!-- FormsModule -->
<g id="node13" class="node">
<title>FormsModule</title>
<polygon fill="#8dd3c7" stroke="#000000" points="831.8288,-122 828.8288,-126 807.8288,-126 804.8288,-122 736.1712,-122 736.1712,-86 831.8288,-86 831.8288,-122"/>
<text text-anchor="middle" x="784" y="-99.8" font-family="Times,serif" font-size="14.00" fill="#000000">FormsModule</text>
</g>
<!-- FormsModule&#45;&gt;AuthModule -->
<g id="edge12" class="edge">
<title>FormsModule&#45;&gt;AuthModule</title>
<path fill="none" stroke="#000000" d="M784,-122.0225C784,-139.3734 784,-163 784,-163 784,-163 1162.2002,-163 1162.2002,-163"/>
<polygon fill="#000000" stroke="#000000" points="1162.2002,-166.5001 1172.2002,-163 1162.2001,-159.5001 1162.2002,-166.5001"/>
</g>
<!-- ReactiveFormsModule -->
<g id="node14" class="node">
<title>ReactiveFormsModule</title>
<polygon fill="#8dd3c7" stroke="#000000" points="718.3047,-122 715.3047,-126 694.3047,-126 691.3047,-122 573.6953,-122 573.6953,-86 718.3047,-86 718.3047,-122"/>
<text text-anchor="middle" x="646" y="-99.8" font-family="Times,serif" font-size="14.00" fill="#000000">ReactiveFormsModule</text>
</g>
<!-- ReactiveFormsModule&#45;&gt;AuthModule -->
<g id="edge13" class="edge">
<title>ReactiveFormsModule&#45;&gt;AuthModule</title>
<path fill="none" stroke="#000000" d="M646,-122.2222C646,-140.8285 646,-167 646,-167 646,-167 1162.2195,-167 1162.2195,-167"/>
<polygon fill="#000000" stroke="#000000" points="1162.2195,-170.5001 1172.2195,-167 1162.2195,-163.5001 1162.2195,-170.5001"/>
</g>
<!-- ReCaptchaModule -->
<g id="node15" class="node">
<title>ReCaptchaModule</title>
<polygon fill="#8dd3c7" stroke="#000000" points="555.472,-122 552.472,-126 531.472,-126 528.472,-122 434.528,-122 434.528,-86 555.472,-86 555.472,-122"/>
<text text-anchor="middle" x="495" y="-99.8" font-family="Times,serif" font-size="14.00" fill="#000000">ReCaptchaModule</text>
</g>
<!-- ReCaptchaModule&#45;&gt;AuthModule -->
<g id="edge14" class="edge">
<title>ReCaptchaModule&#45;&gt;AuthModule</title>
<path fill="none" stroke="#000000" d="M495,-122.308C495,-142.1455 495,-171 495,-171 495,-171 1162.2531,-171 1162.2531,-171"/>
<polygon fill="#000000" stroke="#000000" points="1162.2531,-174.5001 1172.2531,-171 1162.2531,-167.5001 1162.2531,-174.5001"/>
</g>
<!-- UIModule -->
<g id="node16" class="node">
<title>UIModule</title>
<polygon fill="#8dd3c7" stroke="#000000" points="416.3177,-122 413.3177,-126 392.3177,-126 389.3177,-122 341.6823,-122 341.6823,-86 416.3177,-86 416.3177,-122"/>
<text text-anchor="middle" x="379" y="-99.8" font-family="Times,serif" font-size="14.00" fill="#000000">UIModule</text>
</g>
<!-- UIModule&#45;&gt;AuthModule -->
<g id="edge15" class="edge">
<title>UIModule&#45;&gt;AuthModule</title>
<path fill="none" stroke="#000000" d="M379,-122.2843C379,-143.3211 379,-175 379,-175 379,-175 1162.1777,-175 1162.1777,-175"/>
<polygon fill="#000000" stroke="#000000" points="1162.1777,-178.5001 1172.1777,-175 1162.1777,-171.5001 1162.1777,-178.5001"/>
</g>
<!-- StoreService -->
<g id="node17" class="node">
<title>StoreService</title>
<ellipse fill="#fdb462" stroke="#000000" cx="258" cy="-104" rx="60.2479" ry="18"/>
<text text-anchor="middle" x="258" y="-99.8" font-family="Times,serif" font-size="14.00" fill="#000000">StoreService</text>
</g>
<!-- StoreService&#45;&gt;AuthModule -->
<g id="edge16" class="edge">
<title>StoreService&#45;&gt;AuthModule</title>
<path fill="none" stroke="#000000" d="M258,-122.1554C258,-144.3519 258,-179 258,-179 258,-179 1162.3474,-179 1162.3474,-179"/>
<polygon fill="#000000" stroke="#000000" points="1162.3474,-182.5001 1172.3474,-179 1162.3473,-175.5001 1162.3474,-182.5001"/>
</g>
<!-- FacebookService -->
<g id="node18" class="node">
<title>FacebookService</title>
<ellipse fill="#fdb462" stroke="#000000" cx="102" cy="-104" rx="77.5685" ry="18"/>
<text text-anchor="middle" x="102" y="-99.8" font-family="Times,serif" font-size="14.00" fill="#000000">FacebookService</text>
</g>
<!-- FacebookService&#45;&gt;AuthModule -->
<g id="edge17" class="edge">
<title>FacebookService&#45;&gt;AuthModule</title>
<path fill="none" stroke="#000000" d="M102,-122.3228C102,-145.6602 102,-183 102,-183 102,-183 1162.3299,-183 1162.3299,-183"/>
<polygon fill="#000000" stroke="#000000" points="1162.3299,-186.5001 1172.3299,-183 1162.3298,-179.5001 1162.3299,-186.5001"/>
</g>
</g>
</svg>
