<?xml version="1.0" encoding="UTF-8" standalone="no"?>
<!DOCTYPE svg PUBLIC "-//W3C//DTD SVG 1.1//EN"
 "http://www.w3.org/Graphics/SVG/1.1/DTD/svg11.dtd">
<!-- Generated by graphviz version 2.40.1 (20161225.0304)
 -->
<!-- Title: dependencies Pages: 1 -->
<svg width="4725pt" height="211pt"
 viewBox="0.00 0.00 4725.00 211.00" xmlns="http://www.w3.org/2000/svg" xmlns:xlink="http://www.w3.org/1999/xlink">
<g id="graph0" class="graph" transform="scale(1 1) rotate(0) translate(4 207)">
<title>dependencies</title>
<polygon fill="#ffffff" stroke="transparent" points="-4,4 -4,-207 4721,-207 4721,4 -4,4"/>
<text text-anchor="start" x="2337.5091" y="-42.4" font-family="sans-serif" font-weight="bold" font-size="14.00" fill="#000000">Legend</text>
<polygon fill="#ffffb3" stroke="transparent" points="2124.5,-10 2124.5,-30 2144.5,-30 2144.5,-10 2124.5,-10"/>
<text text-anchor="start" x="2148.129" y="-15.4" font-family="sans-serif" font-size="14.00" fill="#000000"> &#160;Declarations</text>
<polygon fill="#8dd3c7" stroke="transparent" points="2237.5,-10 2237.5,-30 2257.5,-30 2257.5,-10 2237.5,-10"/>
<text text-anchor="start" x="2261.2251" y="-15.4" font-family="sans-serif" font-size="14.00" fill="#000000"> &#160;Module</text>
<polygon fill="#80b1d3" stroke="transparent" points="2323.5,-10 2323.5,-30 2343.5,-30 2343.5,-10 2323.5,-10"/>
<text text-anchor="start" x="2347.2812" y="-15.4" font-family="sans-serif" font-size="14.00" fill="#000000"> &#160;Bootstrap</text>
<polygon fill="#fdb462" stroke="transparent" points="2420.5,-10 2420.5,-30 2440.5,-30 2440.5,-10 2420.5,-10"/>
<text text-anchor="start" x="2444.1732" y="-15.4" font-family="sans-serif" font-size="14.00" fill="#000000"> &#160;Providers</text>
<polygon fill="#fb8072" stroke="transparent" points="2516.5,-10 2516.5,-30 2536.5,-30 2536.5,-10 2516.5,-10"/>
<text text-anchor="start" x="2540.2258" y="-15.4" font-family="sans-serif" font-size="14.00" fill="#000000"> &#160;Exports</text>
<g id="clust1" class="cluster">
<title>cluster_TurnoModule</title>
<polygon fill="none" stroke="#000000" stroke-dasharray="1,5" points="8,-70 8,-195 4709,-195 4709,-70 8,-70"/>
</g>
<g id="clust2" class="cluster">
<title>cluster_TurnoModule_declarations</title>
<polygon fill="none" stroke="#000000" points="2085,-78 2085,-130 4701,-130 4701,-78 2085,-78"/>
</g>
<g id="clust16" class="cluster">
<title>cluster_TurnoModule_imports</title>
<polygon fill="none" stroke="#000000" points="16,-78 16,-130 2077,-130 2077,-78 16,-78"/>
</g>
<!-- TurnoHomeComponent -->
<g id="node1" class="node">
<title>TurnoHomeComponent</title>
<polygon fill="#ffffb3" stroke="#000000" points="4692.7576,-122 4543.2424,-122 4543.2424,-86 4692.7576,-86 4692.7576,-122"/>
<text text-anchor="middle" x="4618" y="-99.8" font-family="Times,serif" font-size="14.00" fill="#000000">TurnoHomeComponent</text>
</g>
<!-- TurnoModule -->
<g id="node14" class="node">
<title>TurnoModule</title>
<polygon fill="#8dd3c7" stroke="#000000" points="2136.7633,-187 2133.7633,-191 2112.7633,-191 2109.7633,-187 2043.2367,-187 2043.2367,-151 2136.7633,-151 2136.7633,-187"/>
<text text-anchor="middle" x="2090" y="-164.8" font-family="Times,serif" font-size="14.00" fill="#000000">TurnoModule</text>
</g>
<!-- TurnoHomeComponent&#45;&gt;TurnoModule -->
<g id="edge1" class="edge">
<title>TurnoHomeComponent&#45;&gt;TurnoModule</title>
<path fill="none" stroke="#000000" d="M4618,-122.3802C4618,-146.2785 4618,-185 4618,-185 4618,-185 2146.858,-185 2146.858,-185"/>
<polygon fill="#000000" stroke="#000000" points="2146.858,-181.5001 2136.858,-185 2146.8579,-188.5001 2146.858,-181.5001"/>
</g>
<!-- TurnoComponent -->
<g id="node2" class="node">
<title>TurnoComponent</title>
<polygon fill="#ffffb3" stroke="#000000" points="4524.5465,-122 4409.4535,-122 4409.4535,-86 4524.5465,-86 4524.5465,-122"/>
<text text-anchor="middle" x="4467" y="-99.8" font-family="Times,serif" font-size="14.00" fill="#000000">TurnoComponent</text>
</g>
<!-- TurnoComponent&#45;&gt;TurnoModule -->
<g id="edge2" class="edge">
<title>TurnoComponent&#45;&gt;TurnoModule</title>
<path fill="none" stroke="#000000" d="M4467,-122.0908C4467,-145.1328 4467,-182 4467,-182 4467,-182 2146.9472,-182 2146.9472,-182"/>
<polygon fill="#000000" stroke="#000000" points="2146.9472,-178.5001 2136.9472,-182 2146.9471,-185.5001 2146.9472,-178.5001"/>
</g>
<!-- TurnoBusquedaAvanzadaComponent -->
<g id="node3" class="node">
<title>TurnoBusquedaAvanzadaComponent</title>
<polygon fill="#ffffb3" stroke="#000000" points="4391.2212,-122 4164.7788,-122 4164.7788,-86 4391.2212,-86 4391.2212,-122"/>
<text text-anchor="middle" x="4278" y="-99.8" font-family="Times,serif" font-size="14.00" fill="#000000">TurnoBusquedaAvanzadaComponent</text>
</g>
<!-- TurnoBusquedaAvanzadaComponent&#45;&gt;TurnoModule -->
<g id="edge3" class="edge">
<title>TurnoBusquedaAvanzadaComponent&#45;&gt;TurnoModule</title>
<path fill="none" stroke="#000000" d="M4278,-122.1554C4278,-144.3519 4278,-179 4278,-179 4278,-179 2146.9664,-179 2146.9664,-179"/>
<polygon fill="#000000" stroke="#000000" points="2146.9664,-175.5001 2136.9664,-179 2146.9664,-182.5001 2146.9664,-175.5001"/>
</g>
<!-- TurnoResultadoComponent -->
<g id="node4" class="node">
<title>TurnoResultadoComponent</title>
<polygon fill="#ffffb3" stroke="#000000" points="4146.5378,-122 3975.4622,-122 3975.4622,-86 4146.5378,-86 4146.5378,-122"/>
<text text-anchor="middle" x="4061" y="-99.8" font-family="Times,serif" font-size="14.00" fill="#000000">TurnoResultadoComponent</text>
</g>
<!-- TurnoResultadoComponent&#45;&gt;TurnoModule -->
<g id="edge4" class="edge">
<title>TurnoResultadoComponent&#45;&gt;TurnoModule</title>
<path fill="none" stroke="#000000" d="M4061,-122.1686C4061,-143.498 4061,-176 4061,-176 4061,-176 2146.7776,-176 2146.7776,-176"/>
<polygon fill="#000000" stroke="#000000" points="2146.7776,-172.5001 2136.7776,-176 2146.7775,-179.5001 2146.7776,-172.5001"/>
</g>
<!-- MisTurnosComponent -->
<g id="node5" class="node">
<title>MisTurnosComponent</title>
<polygon fill="#ffffb3" stroke="#000000" points="3957.2702,-122 3814.7298,-122 3814.7298,-86 3957.2702,-86 3957.2702,-122"/>
<text text-anchor="middle" x="3886" y="-99.8" font-family="Times,serif" font-size="14.00" fill="#000000">MisTurnosComponent</text>
</g>
<!-- MisTurnosComponent&#45;&gt;TurnoModule -->
<g id="edge5" class="edge">
<title>MisTurnosComponent&#45;&gt;TurnoModule</title>
<path fill="none" stroke="#000000" d="M3886,-122.0267C3886,-142.7672 3886,-174 3886,-174 3886,-174 2147.1155,-174 2147.1155,-174"/>
<polygon fill="#000000" stroke="#000000" points="2147.1155,-170.5001 2137.1155,-174 2147.1154,-177.5001 2147.1155,-170.5001"/>
</g>
<!-- SwitchTurnoComponent -->
<g id="node6" class="node">
<title>SwitchTurnoComponent</title>
<polygon fill="#ffffb3" stroke="#000000" points="3796.4312,-122 3641.5688,-122 3641.5688,-86 3796.4312,-86 3796.4312,-122"/>
<text text-anchor="middle" x="3719" y="-99.8" font-family="Times,serif" font-size="14.00" fill="#000000">SwitchTurnoComponent</text>
</g>
<!-- SwitchTurnoComponent&#45;&gt;TurnoModule -->
<g id="edge6" class="edge">
<title>SwitchTurnoComponent&#45;&gt;TurnoModule</title>
<path fill="none" stroke="#000000" d="M3719,-122.308C3719,-142.1455 3719,-171 3719,-171 3719,-171 2146.996,-171 2146.996,-171"/>
<polygon fill="#000000" stroke="#000000" points="2146.996,-167.5001 2136.996,-171 2146.996,-174.5001 2146.996,-167.5001"/>
</g>
<!-- TurnosListaComponent -->
<g id="node7" class="node">
<title>TurnosListaComponent</title>
<polygon fill="#ffffb3" stroke="#000000" points="3623.4832,-122 3474.5168,-122 3474.5168,-86 3623.4832,-86 3623.4832,-122"/>
<text text-anchor="middle" x="3549" y="-99.8" font-family="Times,serif" font-size="14.00" fill="#000000">TurnosListaComponent</text>
</g>
<!-- TurnosListaComponent&#45;&gt;TurnoModule -->
<g id="edge7" class="edge">
<title>TurnosListaComponent&#45;&gt;TurnoModule</title>
<path fill="none" stroke="#000000" d="M3549,-122.1686C3549,-141.0898 3549,-168 3549,-168 3549,-168 2146.8911,-168 2146.8911,-168"/>
<polygon fill="#000000" stroke="#000000" points="2146.8911,-164.5001 2136.8911,-168 2146.8911,-171.5001 2146.8911,-164.5001"/>
</g>
<!-- TurnoBusquedaRapidaComponent -->
<g id="node8" class="node">
<title>TurnoBusquedaRapidaComponent</title>
<polygon fill="#ffffb3" stroke="#000000" points="3456.4128,-122 3245.5872,-122 3245.5872,-86 3456.4128,-86 3456.4128,-122"/>
<text text-anchor="middle" x="3351" y="-99.8" font-family="Times,serif" font-size="14.00" fill="#000000">TurnoBusquedaRapidaComponent</text>
</g>
<!-- TurnoBusquedaRapidaComponent&#45;&gt;TurnoModule -->
<g id="edge8" class="edge">
<title>TurnoBusquedaRapidaComponent&#45;&gt;TurnoModule</title>
<path fill="none" stroke="#000000" d="M3351,-122.302C3351,-140.2699 3351,-165 3351,-165 3351,-165 2147.1313,-165 2147.1313,-165"/>
<polygon fill="#000000" stroke="#000000" points="2147.1313,-161.5001 2137.1313,-165 2147.1312,-168.5001 2147.1313,-161.5001"/>
</g>
<!-- TurnoExternalComponent -->
<g id="node9" class="node">
<title>TurnoExternalComponent</title>
<polygon fill="#ffffb3" stroke="#000000" points="3227.4692,-122 3064.5308,-122 3064.5308,-86 3227.4692,-86 3227.4692,-122"/>
<text text-anchor="middle" x="3146" y="-99.8" font-family="Times,serif" font-size="14.00" fill="#000000">TurnoExternalComponent</text>
</g>
<!-- TurnoExternalComponent&#45;&gt;TurnoModule -->
<g id="edge9" class="edge">
<title>TurnoExternalComponent&#45;&gt;TurnoModule</title>
<path fill="none" stroke="#000000" d="M3146,-122.0225C3146,-139.3734 3146,-163 3146,-163 3146,-163 2147.081,-163 2147.081,-163"/>
<polygon fill="#000000" stroke="#000000" points="2147.0811,-159.5001 2137.081,-163 2147.081,-166.5001 2147.0811,-159.5001"/>
</g>
<!-- TurnoBusquedaAvanzadaExternalComponent -->
<g id="node10" class="node">
<title>TurnoBusquedaAvanzadaExternalComponent</title>
<polygon fill="#ffffb3" stroke="#000000" points="3046.1446,-122 2771.8554,-122 2771.8554,-86 3046.1446,-86 3046.1446,-122"/>
<text text-anchor="middle" x="2909" y="-99.8" font-family="Times,serif" font-size="14.00" fill="#000000">TurnoBusquedaAvanzadaExternalComponent</text>
</g>
<!-- TurnoBusquedaAvanzadaExternalComponent&#45;&gt;TurnoModule -->
<g id="edge10" class="edge">
<title>TurnoBusquedaAvanzadaExternalComponent&#45;&gt;TurnoModule</title>
<path fill="none" stroke="#000000" d="M2909,-122.027C2909,-138.3976 2909,-160 2909,-160 2909,-160 2146.9746,-160 2146.9746,-160"/>
<polygon fill="#000000" stroke="#000000" points="2146.9746,-156.5001 2136.9746,-160 2146.9746,-163.5001 2146.9746,-156.5001"/>
</g>
<!-- TurnoResultadoExternalComponent -->
<g id="node11" class="node">
<title>TurnoResultadoExternalComponent</title>
<polygon fill="#ffffb3" stroke="#000000" points="2753.4608,-122 2534.5392,-122 2534.5392,-86 2753.4608,-86 2753.4608,-122"/>
<text text-anchor="middle" x="2644" y="-99.8" font-family="Times,serif" font-size="14.00" fill="#000000">TurnoResultadoExternalComponent</text>
</g>
<!-- TurnoResultadoExternalComponent&#45;&gt;TurnoModule -->
<g id="edge11" class="edge">
<title>TurnoResultadoExternalComponent&#45;&gt;TurnoModule</title>
<path fill="none" stroke="#000000" d="M2644,-122.2396C2644,-137.5706 2644,-157 2644,-157 2644,-157 2147.2337,-157 2147.2337,-157"/>
<polygon fill="#000000" stroke="#000000" points="2147.2338,-153.5001 2137.2337,-157 2147.2337,-160.5001 2147.2338,-153.5001"/>
</g>
<!-- TurnoBusquedaRapidaExternalComponent -->
<g id="node12" class="node">
<title>TurnoBusquedaRapidaExternalComponent</title>
<polygon fill="#ffffb3" stroke="#000000" points="2516.8361,-122 2259.1639,-122 2259.1639,-86 2516.8361,-86 2516.8361,-122"/>
<text text-anchor="middle" x="2388" y="-99.8" font-family="Times,serif" font-size="14.00" fill="#000000">TurnoBusquedaRapidaExternalComponent</text>
</g>
<!-- TurnoBusquedaRapidaExternalComponent&#45;&gt;TurnoModule -->
<g id="edge12" class="edge">
<title>TurnoBusquedaRapidaExternalComponent&#45;&gt;TurnoModule</title>
<path fill="none" stroke="#000000" d="M2388,-122.0511C2388,-136.373 2388,-154 2388,-154 2388,-154 2146.8903,-154 2146.8903,-154"/>
<polygon fill="#000000" stroke="#000000" points="2146.8904,-150.5001 2136.8903,-154 2146.8903,-157.5001 2146.8904,-150.5001"/>
</g>
<!-- PreparacionComponent -->
<g id="node13" class="node">
<title>PreparacionComponent</title>
<polygon fill="#ffffb3" stroke="#000000" points="2241.1853,-122 2092.8147,-122 2092.8147,-86 2241.1853,-86 2241.1853,-122"/>
<text text-anchor="middle" x="2167" y="-99.8" font-family="Times,serif" font-size="14.00" fill="#000000">PreparacionComponent</text>
</g>
<!-- PreparacionComponent&#45;&gt;TurnoModule -->
<g id="edge13" class="edge">
<title>PreparacionComponent&#45;&gt;TurnoModule</title>
<path fill="none" stroke="#000000" d="M2114.8944,-122.1061C2114.8944,-122.1061 2114.8944,-140.991 2114.8944,-140.991"/>
<polygon fill="#000000" stroke="#000000" points="2111.3945,-140.9909 2114.8944,-150.991 2118.3945,-140.991 2111.3945,-140.9909"/>
</g>
<!-- CommonModule -->
<g id="node15" class="node">
<title>CommonModule</title>
<polygon fill="#8dd3c7" stroke="#000000" points="2068.6681,-122 2065.6681,-126 2044.6681,-126 2041.6681,-122 1957.3319,-122 1957.3319,-86 2068.6681,-86 2068.6681,-122"/>
<text text-anchor="middle" x="2013" y="-99.8" font-family="Times,serif" font-size="14.00" fill="#000000">CommonModule</text>
</g>
<!-- CommonModule&#45;&gt;TurnoModule -->
<g id="edge14" class="edge">
<title>CommonModule&#45;&gt;TurnoModule</title>
<path fill="none" stroke="#000000" d="M2055.9762,-122.1061C2055.9762,-122.1061 2055.9762,-140.991 2055.9762,-140.991"/>
<polygon fill="#000000" stroke="#000000" points="2052.4762,-140.9909 2055.9762,-150.991 2059.4762,-140.991 2052.4762,-140.9909"/>
</g>
<!-- RouterModule -->
<g id="node16" class="node">
<title>RouterModule</title>
<polygon fill="#8dd3c7" stroke="#000000" points="1938.6528,-122 1935.6528,-126 1914.6528,-126 1911.6528,-122 1841.3472,-122 1841.3472,-86 1938.6528,-86 1938.6528,-122"/>
<text text-anchor="middle" x="1890" y="-99.8" font-family="Times,serif" font-size="14.00" fill="#000000">RouterModule</text>
</g>
<!-- RouterModule&#45;&gt;TurnoModule -->
<g id="edge15" class="edge">
<title>RouterModule&#45;&gt;TurnoModule</title>
<path fill="none" stroke="#000000" d="M1890,-122.0511C1890,-136.373 1890,-154 1890,-154 1890,-154 2033.1089,-154 2033.1089,-154"/>
<polygon fill="#000000" stroke="#000000" points="2033.1089,-157.5001 2043.1089,-154 2033.1089,-150.5001 2033.1089,-157.5001"/>
</g>
<!-- FormsModule -->
<g id="node17" class="node">
<title>FormsModule</title>
<polygon fill="#8dd3c7" stroke="#000000" points="1823.8288,-122 1820.8288,-126 1799.8288,-126 1796.8288,-122 1728.1712,-122 1728.1712,-86 1823.8288,-86 1823.8288,-122"/>
<text text-anchor="middle" x="1776" y="-99.8" font-family="Times,serif" font-size="14.00" fill="#000000">FormsModule</text>
</g>
<!-- FormsModule&#45;&gt;TurnoModule -->
<g id="edge16" class="edge">
<title>FormsModule&#45;&gt;TurnoModule</title>
<path fill="none" stroke="#000000" d="M1776,-122.2396C1776,-137.5706 1776,-157 1776,-157 1776,-157 2032.991,-157 2032.991,-157"/>
<polygon fill="#000000" stroke="#000000" points="2032.9911,-160.5001 2042.991,-157 2032.991,-153.5001 2032.9911,-160.5001"/>
</g>
<!-- UIModule -->
<g id="node18" class="node">
<title>UIModule</title>
<polygon fill="#8dd3c7" stroke="#000000" points="1710.3177,-122 1707.3177,-126 1686.3177,-126 1683.3177,-122 1635.6823,-122 1635.6823,-86 1710.3177,-86 1710.3177,-122"/>
<text text-anchor="middle" x="1673" y="-99.8" font-family="Times,serif" font-size="14.00" fill="#000000">UIModule</text>
</g>
<!-- UIModule&#45;&gt;TurnoModule -->
<g id="edge17" class="edge">
<title>UIModule&#45;&gt;TurnoModule</title>
<path fill="none" stroke="#000000" d="M1673,-122.027C1673,-138.3976 1673,-160 1673,-160 1673,-160 2032.9754,-160 2032.9754,-160"/>
<polygon fill="#000000" stroke="#000000" points="2032.9754,-163.5001 2042.9754,-160 2032.9754,-156.5001 2032.9754,-163.5001"/>
</g>
<!-- TurnoRoutingModule -->
<g id="node19" class="node">
<title>TurnoRoutingModule</title>
<polygon fill="#8dd3c7" stroke="#000000" points="1617.3809,-122 1614.3809,-126 1593.3809,-126 1590.3809,-122 1478.6191,-122 1478.6191,-86 1617.3809,-86 1617.3809,-122"/>
<text text-anchor="middle" x="1548" y="-99.8" font-family="Times,serif" font-size="14.00" fill="#000000">TurnoRoutingModule</text>
</g>
<!-- TurnoRoutingModule&#45;&gt;TurnoModule -->
<g id="edge18" class="edge">
<title>TurnoRoutingModule&#45;&gt;TurnoModule</title>
<path fill="none" stroke="#000000" d="M1548,-122.0225C1548,-139.3734 1548,-163 1548,-163 1548,-163 2032.8492,-163 2032.8492,-163"/>
<polygon fill="#000000" stroke="#000000" points="2032.8492,-166.5001 2042.8492,-163 2032.8492,-159.5001 2032.8492,-166.5001"/>
</g>
<!-- ReactiveFormsModule -->
<g id="node20" class="node">
<title>ReactiveFormsModule</title>
<polygon fill="#8dd3c7" stroke="#000000" points="1460.3047,-122 1457.3047,-126 1436.3047,-126 1433.3047,-122 1315.6953,-122 1315.6953,-86 1460.3047,-86 1460.3047,-122"/>
<text text-anchor="middle" x="1388" y="-99.8" font-family="Times,serif" font-size="14.00" fill="#000000">ReactiveFormsModule</text>
</g>
<!-- ReactiveFormsModule&#45;&gt;TurnoModule -->
<g id="edge19" class="edge">
<title>ReactiveFormsModule&#45;&gt;TurnoModule</title>
<path fill="none" stroke="#000000" d="M1388,-122.302C1388,-140.2699 1388,-165 1388,-165 1388,-165 2033.1233,-165 2033.1233,-165"/>
<polygon fill="#000000" stroke="#000000" points="2033.1233,-168.5001 2043.1233,-165 2033.1233,-161.5001 2033.1233,-168.5001"/>
</g>
<!-- TabsModule.forRoot() -->
<g id="node21" class="node">
<title>TabsModule.forRoot()</title>
<polygon fill="#8dd3c7" stroke="#000000" points="1297.6313,-122 1294.6313,-126 1273.6313,-126 1270.6313,-122 1154.3687,-122 1154.3687,-86 1297.6313,-86 1297.6313,-122"/>
<text text-anchor="middle" x="1226" y="-99.8" font-family="Times,serif" font-size="14.00" fill="#000000">TabsModule.forRoot()</text>
</g>
<!-- TabsModule.forRoot()&#45;&gt;TurnoModule -->
<g id="edge20" class="edge">
<title>TabsModule.forRoot()&#45;&gt;TurnoModule</title>
<path fill="none" stroke="#000000" d="M1226,-122.1686C1226,-141.0898 1226,-168 1226,-168 1226,-168 2032.934,-168 2032.934,-168"/>
<polygon fill="#000000" stroke="#000000" points="2032.9341,-171.5001 2042.934,-168 2032.934,-164.5001 2032.9341,-171.5001"/>
</g>
<!-- BsDropdownModule.forRoot() -->
<g id="node22" class="node">
<title>BsDropdownModule.forRoot()</title>
<polygon fill="#8dd3c7" stroke="#000000" points="1136.0749,-122 1133.0749,-126 1112.0749,-126 1109.0749,-122 945.9251,-122 945.9251,-86 1136.0749,-86 1136.0749,-122"/>
<text text-anchor="middle" x="1041" y="-99.8" font-family="Times,serif" font-size="14.00" fill="#000000">BsDropdownModule.forRoot()</text>
</g>
<!-- BsDropdownModule.forRoot()&#45;&gt;TurnoModule -->
<g id="edge21" class="edge">
<title>BsDropdownModule.forRoot()&#45;&gt;TurnoModule</title>
<path fill="none" stroke="#000000" d="M1041,-122.308C1041,-142.1455 1041,-171 1041,-171 1041,-171 2033.2311,-171 2033.2311,-171"/>
<polygon fill="#000000" stroke="#000000" points="2033.2311,-174.5001 2043.2311,-171 2033.231,-167.5001 2033.2311,-174.5001"/>
</g>
<!-- TimepickerModule.forRoot() -->
<g id="node23" class="node">
<title>TimepickerModule.forRoot()</title>
<polygon fill="#8dd3c7" stroke="#000000" points="927.4488,-122 924.4488,-126 903.4488,-126 900.4488,-122 746.5512,-122 746.5512,-86 927.4488,-86 927.4488,-122"/>
<text text-anchor="middle" x="837" y="-99.8" font-family="Times,serif" font-size="14.00" fill="#000000">TimepickerModule.forRoot()</text>
</g>
<!-- TimepickerModule.forRoot()&#45;&gt;TurnoModule -->
<g id="edge22" class="edge">
<title>TimepickerModule.forRoot()&#45;&gt;TurnoModule</title>
<path fill="none" stroke="#000000" d="M837,-122.0267C837,-142.7672 837,-174 837,-174 837,-174 2033.1678,-174 2033.1678,-174"/>
<polygon fill="#000000" stroke="#000000" points="2033.1678,-177.5001 2043.1678,-174 2033.1677,-170.5001 2033.1678,-177.5001"/>
</g>
<!-- PopoverModule.forRoot() -->
<g id="node24" class="node">
<title>PopoverModule.forRoot()</title>
<polygon fill="#8dd3c7" stroke="#000000" points="728.0777,-122 725.0777,-126 704.0777,-126 701.0777,-122 565.9223,-122 565.9223,-86 728.0777,-86 728.0777,-122"/>
<text text-anchor="middle" x="647" y="-99.8" font-family="Times,serif" font-size="14.00" fill="#000000">PopoverModule.forRoot()</text>
</g>
<!-- PopoverModule.forRoot()&#45;&gt;TurnoModule -->
<g id="edge23" class="edge">
<title>PopoverModule.forRoot()&#45;&gt;TurnoModule</title>
<path fill="none" stroke="#000000" d="M647,-122.1686C647,-143.498 647,-176 647,-176 647,-176 2033.217,-176 2033.217,-176"/>
<polygon fill="#000000" stroke="#000000" points="2033.217,-179.5001 2043.217,-176 2033.2169,-172.5001 2033.217,-179.5001"/>
</g>
<!-- MyDatePickerModule -->
<g id="node25" class="node">
<title>MyDatePickerModule</title>
<polygon fill="#8dd3c7" stroke="#000000" points="547.6839,-122 544.6839,-126 523.6839,-126 520.6839,-122 406.3161,-122 406.3161,-86 547.6839,-86 547.6839,-122"/>
<text text-anchor="middle" x="477" y="-99.8" font-family="Times,serif" font-size="14.00" fill="#000000">MyDatePickerModule</text>
</g>
<!-- MyDatePickerModule&#45;&gt;TurnoModule -->
<g id="edge24" class="edge">
<title>MyDatePickerModule&#45;&gt;TurnoModule</title>
<path fill="none" stroke="#000000" d="M477,-122.1554C477,-144.3519 477,-179 477,-179 477,-179 2033.0335,-179 2033.0335,-179"/>
<polygon fill="#000000" stroke="#000000" points="2033.0335,-182.5001 2043.0335,-179 2033.0334,-175.5001 2033.0335,-182.5001"/>
</g>
<!-- ModalModule.forRoot() -->
<g id="node26" class="node">
<title>ModalModule.forRoot()</title>
<polygon fill="#8dd3c7" stroke="#000000" points="388.4699,-122 385.4699,-126 364.4699,-126 361.4699,-122 235.5301,-122 235.5301,-86 388.4699,-86 388.4699,-122"/>
<text text-anchor="middle" x="312" y="-99.8" font-family="Times,serif" font-size="14.00" fill="#000000">ModalModule.forRoot()</text>
</g>
<!-- ModalModule.forRoot()&#45;&gt;TurnoModule -->
<g id="edge25" class="edge">
<title>ModalModule.forRoot()&#45;&gt;TurnoModule</title>
<path fill="none" stroke="#000000" d="M312,-122.0908C312,-145.1328 312,-182 312,-182 312,-182 2032.9008,-182 2032.9008,-182"/>
<polygon fill="#000000" stroke="#000000" points="2032.9008,-185.5001 2042.9008,-182 2032.9007,-178.5001 2032.9008,-185.5001"/>
</g>
<!-- AgmCoreModule.forRoot(args) -->
<g id="node27" class="node">
<title>AgmCoreModule.forRoot(args)</title>
<polygon fill="#8dd3c7" stroke="#000000" points="218.4487,-122 215.4487,-126 194.4487,-126 191.4487,-122 23.5513,-122 23.5513,-86 218.4487,-86 218.4487,-122"/>
<text text-anchor="middle" x="121" y="-99.8" font-family="Times,serif" font-size="14.00" fill="#000000">AgmCoreModule.forRoot(args)</text>
</g>
<!-- AgmCoreModule.forRoot(args)&#45;&gt;TurnoModule -->
<g id="edge26" class="edge">
<title>AgmCoreModule.forRoot(args)&#45;&gt;TurnoModule</title>
<path fill="none" stroke="#000000" d="M121,-122.3802C121,-146.2785 121,-185 121,-185 121,-185 2032.7878,-185 2032.7878,-185"/>
<polygon fill="#000000" stroke="#000000" points="2032.7878,-188.5001 2042.7878,-185 2032.7878,-181.5001 2032.7878,-188.5001"/>
</g>
</g>
</svg>
