<?xml version="1.0" encoding="UTF-8" standalone="no"?>
<!DOCTYPE svg PUBLIC "-//W3C//DTD SVG 1.1//EN"
 "http://www.w3.org/Graphics/SVG/1.1/DTD/svg11.dtd">
<!-- Generated by graphviz version 2.40.1 (20161225.0304)
 -->
<!-- Title: dependencies Pages: 1 -->
<svg width="1842pt" height="284pt"
 viewBox="0.00 0.00 1842.00 284.00" xmlns="http://www.w3.org/2000/svg" xmlns:xlink="http://www.w3.org/1999/xlink">
<g id="graph0" class="graph" transform="scale(1 1) rotate(0) translate(4 280)">
<title>dependencies</title>
<polygon fill="#ffffff" stroke="transparent" points="-4,4 -4,-280 1838,-280 1838,4 -4,4"/>
<text text-anchor="start" x="896.0091" y="-42.4" font-family="sans-serif" font-weight="bold" font-size="14.00" fill="#000000">Legend</text>
<polygon fill="#ffffb3" stroke="transparent" points="683,-10 683,-30 703,-30 703,-10 683,-10"/>
<text text-anchor="start" x="706.629" y="-15.4" font-family="sans-serif" font-size="14.00" fill="#000000"> &#160;Declarations</text>
<polygon fill="#8dd3c7" stroke="transparent" points="796,-10 796,-30 816,-30 816,-10 796,-10"/>
<text text-anchor="start" x="819.7251" y="-15.4" font-family="sans-serif" font-size="14.00" fill="#000000"> &#160;Module</text>
<polygon fill="#80b1d3" stroke="transparent" points="882,-10 882,-30 902,-30 902,-10 882,-10"/>
<text text-anchor="start" x="905.7812" y="-15.4" font-family="sans-serif" font-size="14.00" fill="#000000"> &#160;Bootstrap</text>
<polygon fill="#fdb462" stroke="transparent" points="979,-10 979,-30 999,-30 999,-10 979,-10"/>
<text text-anchor="start" x="1002.6732" y="-15.4" font-family="sans-serif" font-size="14.00" fill="#000000"> &#160;Providers</text>
<polygon fill="#fb8072" stroke="transparent" points="1075,-10 1075,-30 1095,-30 1095,-10 1075,-10"/>
<text text-anchor="start" x="1098.7258" y="-15.4" font-family="sans-serif" font-size="14.00" fill="#000000"> &#160;Exports</text>
<g id="clust1" class="cluster">
<title>cluster_GrupoFamiliarModule</title>
<polygon fill="none" stroke="#000000" stroke-dasharray="1,5" points="8,-70 8,-268 1826,-268 1826,-70 8,-70"/>
</g>
<g id="clust2" class="cluster">
<title>cluster_GrupoFamiliarModule_declarations</title>
<polygon fill="none" stroke="#000000" points="1448,-78 1448,-130 1818,-130 1818,-78 1448,-78"/>
</g>
<g id="clust5" class="cluster">
<title>cluster_GrupoFamiliarModule_imports</title>
<polygon fill="none" stroke="#000000" points="16,-78 16,-130 1440,-130 1440,-78 16,-78"/>
</g>
<g id="clust6" class="cluster">
<title>cluster_GrupoFamiliarModule_exports</title>
<polygon fill="none" stroke="#000000" points="898,-208 898,-260 1082,-260 1082,-208 898,-208"/>
</g>
<!-- GrupoFamiliarComponent -->
<g id="node1" class="node">
<title>GrupoFamiliarComponent</title>
<polygon fill="#ffffb3" stroke="#000000" points="1810.0351,-122 1645.9649,-122 1645.9649,-86 1810.0351,-86 1810.0351,-122"/>
<text text-anchor="middle" x="1728" y="-99.8" font-family="Times,serif" font-size="14.00" fill="#000000">GrupoFamiliarComponent</text>
</g>
<!-- GrupoFamiliarModule -->
<g id="node3" class="node">
<title>GrupoFamiliarModule</title>
<polygon fill="#8dd3c7" stroke="#000000" points="1061.252,-187 1058.252,-191 1037.252,-191 1034.252,-187 918.748,-187 918.748,-151 1061.252,-151 1061.252,-187"/>
<text text-anchor="middle" x="990" y="-164.8" font-family="Times,serif" font-size="14.00" fill="#000000">GrupoFamiliarModule</text>
</g>
<!-- GrupoFamiliarComponent&#45;&gt;GrupoFamiliarModule -->
<g id="edge1" class="edge">
<title>GrupoFamiliarComponent&#45;&gt;GrupoFamiliarModule</title>
<path fill="none" stroke="#000000" d="M1728,-122.0109C1728,-144.4852 1728,-180 1728,-180 1728,-180 1071.4331,-180 1071.4331,-180"/>
<polygon fill="#000000" stroke="#000000" points="1071.4331,-176.5001 1061.4331,-180 1071.4331,-183.5001 1071.4331,-176.5001"/>
</g>
<!-- ListaIntegrantesComponent -->
<g id="node2" class="node">
<title>ListaIntegrantesComponent</title>
<polygon fill="#ffffb3" stroke="#000000" points="1627.5169,-122 1456.4831,-122 1456.4831,-86 1627.5169,-86 1627.5169,-122"/>
<text text-anchor="middle" x="1542" y="-99.8" font-family="Times,serif" font-size="14.00" fill="#000000">ListaIntegrantesComponent</text>
</g>
<!-- ListaIntegrantesComponent&#45;&gt;GrupoFamiliarModule -->
<g id="edge2" class="edge">
<title>ListaIntegrantesComponent&#45;&gt;GrupoFamiliarModule</title>
<path fill="none" stroke="#000000" d="M1542,-122.1289C1542,-142.5724 1542,-173 1542,-173 1542,-173 1071.3162,-173 1071.3162,-173"/>
<polygon fill="#000000" stroke="#000000" points="1071.3162,-169.5001 1061.3162,-173 1071.3161,-176.5001 1071.3162,-169.5001"/>
</g>
<!-- GrupoFamiliarComponent  -->
<g id="node13" class="node">
<title>GrupoFamiliarComponent </title>
<polygon fill="#fb8072" stroke="#000000" points="1074.0344,-252 905.9656,-252 905.9656,-216 1074.0344,-216 1074.0344,-252"/>
<text text-anchor="middle" x="990" y="-229.8" font-family="Times,serif" font-size="14.00" fill="#000000">GrupoFamiliarComponent </text>
</g>
<!-- GrupoFamiliarModule&#45;&gt;GrupoFamiliarComponent  -->
<g id="edge12" class="edge">
<title>GrupoFamiliarModule&#45;&gt;GrupoFamiliarComponent </title>
<path fill="none" stroke="#000000" stroke-dasharray="5,2" d="M990,-187.1061C990,-187.1061 990,-205.991 990,-205.991"/>
<polygon fill="#000000" stroke="#000000" points="986.5001,-205.9909 990,-215.991 993.5001,-205.991 986.5001,-205.9909"/>
</g>
<!-- CommonModule -->
<g id="node4" class="node">
<title>CommonModule</title>
<polygon fill="#8dd3c7" stroke="#000000" points="1431.6681,-122 1428.6681,-126 1407.6681,-126 1404.6681,-122 1320.3319,-122 1320.3319,-86 1431.6681,-86 1431.6681,-122"/>
<text text-anchor="middle" x="1376" y="-99.8" font-family="Times,serif" font-size="14.00" fill="#000000">CommonModule</text>
</g>
<!-- CommonModule&#45;&gt;GrupoFamiliarModule -->
<g id="edge3" class="edge">
<title>CommonModule&#45;&gt;GrupoFamiliarModule</title>
<path fill="none" stroke="#000000" d="M1376,-122.2667C1376,-140.5552 1376,-166 1376,-166 1376,-166 1071.699,-166 1071.699,-166"/>
<polygon fill="#000000" stroke="#000000" points="1071.699,-162.5001 1061.699,-166 1071.699,-169.5001 1071.699,-162.5001"/>
</g>
<!-- FormsModule -->
<g id="node5" class="node">
<title>FormsModule</title>
<polygon fill="#8dd3c7" stroke="#000000" points="1302.8288,-122 1299.8288,-126 1278.8288,-126 1275.8288,-122 1207.1712,-122 1207.1712,-86 1302.8288,-86 1302.8288,-122"/>
<text text-anchor="middle" x="1255" y="-99.8" font-family="Times,serif" font-size="14.00" fill="#000000">FormsModule</text>
</g>
<!-- FormsModule&#45;&gt;GrupoFamiliarModule -->
<g id="edge4" class="edge">
<title>FormsModule&#45;&gt;GrupoFamiliarModule</title>
<path fill="none" stroke="#000000" d="M1255,-122.0091C1255,-138.0494 1255,-159 1255,-159 1255,-159 1071.3637,-159 1071.3637,-159"/>
<polygon fill="#000000" stroke="#000000" points="1071.3638,-155.5001 1061.3637,-159 1071.3637,-162.5001 1071.3638,-155.5001"/>
</g>
<!-- ReactiveFormsModule -->
<g id="node6" class="node">
<title>ReactiveFormsModule</title>
<polygon fill="#8dd3c7" stroke="#000000" points="1189.3047,-122 1186.3047,-126 1165.3047,-126 1162.3047,-122 1044.6953,-122 1044.6953,-86 1189.3047,-86 1189.3047,-122"/>
<text text-anchor="middle" x="1117" y="-99.8" font-family="Times,serif" font-size="14.00" fill="#000000">ReactiveFormsModule</text>
</g>
<!-- ReactiveFormsModule&#45;&gt;GrupoFamiliarModule -->
<g id="edge5" class="edge">
<title>ReactiveFormsModule&#45;&gt;GrupoFamiliarModule</title>
<path fill="none" stroke="#000000" d="M1053.1119,-122.1061C1053.1119,-122.1061 1053.1119,-140.991 1053.1119,-140.991"/>
<polygon fill="#000000" stroke="#000000" points="1049.6119,-140.9909 1053.1119,-150.991 1056.6119,-140.991 1049.6119,-140.9909"/>
</g>
<!-- UIModule -->
<g id="node7" class="node">
<title>UIModule</title>
<polygon fill="#8dd3c7" stroke="#000000" points="1027.3177,-122 1024.3177,-126 1003.3177,-126 1000.3177,-122 952.6823,-122 952.6823,-86 1027.3177,-86 1027.3177,-122"/>
<text text-anchor="middle" x="990" y="-99.8" font-family="Times,serif" font-size="14.00" fill="#000000">UIModule</text>
</g>
<!-- UIModule&#45;&gt;GrupoFamiliarModule -->
<g id="edge6" class="edge">
<title>UIModule&#45;&gt;GrupoFamiliarModule</title>
<path fill="none" stroke="#000000" d="M990,-122.1061C990,-122.1061 990,-140.991 990,-140.991"/>
<polygon fill="#000000" stroke="#000000" points="986.5001,-140.9909 990,-150.991 993.5001,-140.991 986.5001,-140.9909"/>
</g>
<!-- GrupoFamiliarRoutingModule -->
<g id="node8" class="node">
<title>GrupoFamiliarRoutingModule</title>
<polygon fill="#8dd3c7" stroke="#000000" points="934.8696,-122 931.8696,-126 910.8696,-126 907.8696,-122 747.1304,-122 747.1304,-86 934.8696,-86 934.8696,-122"/>
<text text-anchor="middle" x="841" y="-99.8" font-family="Times,serif" font-size="14.00" fill="#000000">GrupoFamiliarRoutingModule</text>
</g>
<!-- GrupoFamiliarRoutingModule&#45;&gt;GrupoFamiliarModule -->
<g id="edge7" class="edge">
<title>GrupoFamiliarRoutingModule&#45;&gt;GrupoFamiliarModule</title>
<path fill="none" stroke="#000000" d="M926.7795,-122.1061C926.7795,-122.1061 926.7795,-140.991 926.7795,-140.991"/>
<polygon fill="#000000" stroke="#000000" points="923.2795,-140.9909 926.7795,-150.991 930.2795,-140.991 923.2795,-140.9909"/>
</g>
<!-- PopoverModule.forRoot() -->
<g id="node9" class="node">
<title>PopoverModule.forRoot()</title>
<polygon fill="#8dd3c7" stroke="#000000" points="729.0777,-122 726.0777,-126 705.0777,-126 702.0777,-122 566.9223,-122 566.9223,-86 729.0777,-86 729.0777,-122"/>
<text text-anchor="middle" x="648" y="-99.8" font-family="Times,serif" font-size="14.00" fill="#000000">PopoverModule.forRoot()</text>
</g>
<!-- PopoverModule.forRoot()&#45;&gt;GrupoFamiliarModule -->
<g id="edge8" class="edge">
<title>PopoverModule.forRoot()&#45;&gt;GrupoFamiliarModule</title>
<path fill="none" stroke="#000000" d="M648,-122.0091C648,-138.0494 648,-159 648,-159 648,-159 908.7219,-159 908.7219,-159"/>
<polygon fill="#000000" stroke="#000000" points="908.7219,-162.5001 918.7219,-159 908.7219,-155.5001 908.7219,-162.5001"/>
</g>
<!-- ModalModule.forRoot() -->
<g id="node10" class="node">
<title>ModalModule.forRoot()</title>
<polygon fill="#8dd3c7" stroke="#000000" points="548.4699,-122 545.4699,-126 524.4699,-126 521.4699,-122 395.5301,-122 395.5301,-86 548.4699,-86 548.4699,-122"/>
<text text-anchor="middle" x="472" y="-99.8" font-family="Times,serif" font-size="14.00" fill="#000000">ModalModule.forRoot()</text>
</g>
<!-- ModalModule.forRoot()&#45;&gt;GrupoFamiliarModule -->
<g id="edge9" class="edge">
<title>ModalModule.forRoot()&#45;&gt;GrupoFamiliarModule</title>
<path fill="none" stroke="#000000" d="M472,-122.2667C472,-140.5552 472,-166 472,-166 472,-166 908.5182,-166 908.5182,-166"/>
<polygon fill="#000000" stroke="#000000" points="908.5182,-169.5001 918.5182,-166 908.5181,-162.5001 908.5182,-169.5001"/>
</g>
<!-- AgmCoreModule.forRoot(args) -->
<g id="node11" class="node">
<title>AgmCoreModule.forRoot(args)</title>
<polygon fill="#8dd3c7" stroke="#000000" points="378.4487,-122 375.4487,-126 354.4487,-126 351.4487,-122 183.5513,-122 183.5513,-86 378.4487,-86 378.4487,-122"/>
<text text-anchor="middle" x="281" y="-99.8" font-family="Times,serif" font-size="14.00" fill="#000000">AgmCoreModule.forRoot(args)</text>
</g>
<!-- AgmCoreModule.forRoot(args)&#45;&gt;GrupoFamiliarModule -->
<g id="edge10" class="edge">
<title>AgmCoreModule.forRoot(args)&#45;&gt;GrupoFamiliarModule</title>
<path fill="none" stroke="#000000" d="M281,-122.1289C281,-142.5724 281,-173 281,-173 281,-173 908.4442,-173 908.4442,-173"/>
<polygon fill="#000000" stroke="#000000" points="908.4442,-176.5001 918.4442,-173 908.4441,-169.5001 908.4442,-176.5001"/>
</g>
<!-- MyDatePickerModule -->
<g id="node12" class="node">
<title>MyDatePickerModule</title>
<polygon fill="#8dd3c7" stroke="#000000" points="165.6839,-122 162.6839,-126 141.6839,-126 138.6839,-122 24.3161,-122 24.3161,-86 165.6839,-86 165.6839,-122"/>
<text text-anchor="middle" x="95" y="-99.8" font-family="Times,serif" font-size="14.00" fill="#000000">MyDatePickerModule</text>
</g>
<!-- MyDatePickerModule&#45;&gt;GrupoFamiliarModule -->
<g id="edge11" class="edge">
<title>MyDatePickerModule&#45;&gt;GrupoFamiliarModule</title>
<path fill="none" stroke="#000000" d="M95,-122.0109C95,-144.4852 95,-180 95,-180 95,-180 908.6474,-180 908.6474,-180"/>
<polygon fill="#000000" stroke="#000000" points="908.6475,-183.5001 918.6474,-180 908.6474,-176.5001 908.6475,-183.5001"/>
</g>
</g>
</svg>
