<?xml version="1.0" encoding="UTF-8" standalone="no"?>
<!DOCTYPE svg PUBLIC "-//W3C//DTD SVG 1.1//EN"
 "http://www.w3.org/Graphics/SVG/1.1/DTD/svg11.dtd">
<!-- Generated by graphviz version 2.40.1 (20161225.0304)
 -->
<!-- Title: dependencies Pages: 1 -->
<svg width="596pt" height="349pt"
 viewBox="0.00 0.00 596.00 349.00" xmlns="http://www.w3.org/2000/svg" xmlns:xlink="http://www.w3.org/1999/xlink">
<g id="graph0" class="graph" transform="scale(1 1) rotate(0) translate(4 345)">
<title>dependencies</title>
<polygon fill="#ffffff" stroke="transparent" points="-4,4 -4,-345 592,-345 592,4 -4,4"/>
<text text-anchor="start" x="273.0091" y="-42.4" font-family="sans-serif" font-weight="bold" font-size="14.00" fill="#000000">Legend</text>
<polygon fill="#ffffb3" stroke="transparent" points="60,-10 60,-30 80,-30 80,-10 60,-10"/>
<text text-anchor="start" x="83.629" y="-15.4" font-family="sans-serif" font-size="14.00" fill="#000000"> &#160;Declarations</text>
<polygon fill="#8dd3c7" stroke="transparent" points="173,-10 173,-30 193,-30 193,-10 173,-10"/>
<text text-anchor="start" x="196.7251" y="-15.4" font-family="sans-serif" font-size="14.00" fill="#000000"> &#160;Module</text>
<polygon fill="#80b1d3" stroke="transparent" points="259,-10 259,-30 279,-30 279,-10 259,-10"/>
<text text-anchor="start" x="282.7812" y="-15.4" font-family="sans-serif" font-size="14.00" fill="#000000"> &#160;Bootstrap</text>
<polygon fill="#fdb462" stroke="transparent" points="356,-10 356,-30 376,-30 376,-10 356,-10"/>
<text text-anchor="start" x="379.6732" y="-15.4" font-family="sans-serif" font-size="14.00" fill="#000000"> &#160;Providers</text>
<polygon fill="#fb8072" stroke="transparent" points="452,-10 452,-30 472,-30 472,-10 452,-10"/>
<text text-anchor="start" x="475.7258" y="-15.4" font-family="sans-serif" font-size="14.00" fill="#000000"> &#160;Exports</text>
<g id="clust1" class="cluster">
<title>cluster_MyDatePickerModule</title>
<polygon fill="none" stroke="#000000" stroke-dasharray="1,5" points="8,-70 8,-333 580,-333 580,-70 8,-70"/>
</g>
<g id="clust2" class="cluster">
<title>cluster_MyDatePickerModule_declarations</title>
<polygon fill="none" stroke="#000000" points="265,-143 265,-195 499,-195 499,-143 265,-143"/>
</g>
<g id="clust3" class="cluster">
<title>cluster_MyDatePickerModule_MyDatePicker_providers</title>
<polygon fill="none" stroke="#000000" points="16,-78 16,-130 572,-130 572,-78 16,-78"/>
</g>
<g id="clust5" class="cluster">
<title>cluster_MyDatePickerModule_imports</title>
<polygon fill="none" stroke="#000000" points="16,-143 16,-195 257,-195 257,-143 16,-143"/>
</g>
<g id="clust6" class="cluster">
<title>cluster_MyDatePickerModule_exports</title>
<polygon fill="none" stroke="#000000" points="74,-273 74,-325 315,-325 315,-273 74,-273"/>
</g>
<!-- MyDatePicker -->
<g id="node1" class="node">
<title>MyDatePicker</title>
<polygon fill="#ffffb3" stroke="#000000" points="490.6347,-187 393.3653,-187 393.3653,-151 490.6347,-151 490.6347,-187"/>
<text text-anchor="middle" x="442" y="-164.8" font-family="Times,serif" font-size="14.00" fill="#000000">MyDatePicker</text>
</g>
<!-- MyDatePickerModule -->
<g id="node3" class="node">
<title>MyDatePickerModule</title>
<polygon fill="#8dd3c7" stroke="#000000" points="294.6839,-252 291.6839,-256 270.6839,-256 267.6839,-252 153.3161,-252 153.3161,-216 294.6839,-216 294.6839,-252"/>
<text text-anchor="middle" x="224" y="-229.8" font-family="Times,serif" font-size="14.00" fill="#000000">MyDatePickerModule</text>
</g>
<!-- MyDatePicker&#45;&gt;MyDatePickerModule -->
<g id="edge1" class="edge">
<title>MyDatePicker&#45;&gt;MyDatePickerModule</title>
<path fill="none" stroke="#000000" d="M442,-187.1061C442,-206.3391 442,-234 442,-234 442,-234 304.7784,-234 304.7784,-234"/>
<polygon fill="#000000" stroke="#000000" points="304.7784,-230.5001 294.7784,-234 304.7783,-237.5001 304.7784,-230.5001"/>
</g>
<!-- FocusDirective -->
<g id="node2" class="node">
<title>FocusDirective</title>
<polygon fill="#ffffb3" stroke="#000000" points="374.5257,-187 273.4743,-187 273.4743,-151 374.5257,-151 374.5257,-187"/>
<text text-anchor="middle" x="324" y="-164.8" font-family="Times,serif" font-size="14.00" fill="#000000">FocusDirective</text>
</g>
<!-- FocusDirective&#45;&gt;MyDatePickerModule -->
<g id="edge5" class="edge">
<title>FocusDirective&#45;&gt;MyDatePickerModule</title>
<path fill="none" stroke="#000000" d="M283.9148,-187.1061C283.9148,-187.1061 283.9148,-205.991 283.9148,-205.991"/>
<polygon fill="#000000" stroke="#000000" points="280.4149,-205.9909 283.9148,-215.991 287.4149,-205.991 280.4149,-205.9909"/>
</g>
<!-- MyDatePicker  -->
<g id="node9" class="node">
<title>MyDatePicker </title>
<polygon fill="#fb8072" stroke="#000000" points="306.6341,-317 205.3659,-317 205.3659,-281 306.6341,-281 306.6341,-317"/>
<text text-anchor="middle" x="256" y="-294.8" font-family="Times,serif" font-size="14.00" fill="#000000">MyDatePicker </text>
</g>
<!-- MyDatePickerModule&#45;&gt;MyDatePicker  -->
<g id="edge8" class="edge">
<title>MyDatePickerModule&#45;&gt;MyDatePicker </title>
<path fill="none" stroke="#000000" stroke-dasharray="5,2" d="M250.0125,-252.1061C250.0125,-252.1061 250.0125,-270.991 250.0125,-270.991"/>
<polygon fill="#000000" stroke="#000000" points="246.5125,-270.9909 250.0125,-280.991 253.5125,-270.991 246.5125,-270.9909"/>
</g>
<!-- FocusDirective  -->
<g id="node10" class="node">
<title>FocusDirective </title>
<polygon fill="#fb8072" stroke="#000000" points="187.5246,-317 82.4754,-317 82.4754,-281 187.5246,-281 187.5246,-317"/>
<text text-anchor="middle" x="135" y="-294.8" font-family="Times,serif" font-size="14.00" fill="#000000">FocusDirective </text>
</g>
<!-- MyDatePickerModule&#45;&gt;FocusDirective  -->
<g id="edge9" class="edge">
<title>MyDatePickerModule&#45;&gt;FocusDirective </title>
<path fill="none" stroke="#000000" stroke-dasharray="5,2" d="M170.4602,-252.1061C170.4602,-252.1061 170.4602,-270.991 170.4602,-270.991"/>
<polygon fill="#000000" stroke="#000000" points="166.9603,-270.9909 170.4602,-280.991 173.9603,-270.991 166.9603,-270.9909"/>
</g>
<!-- LocaleService -->
<g id="node4" class="node">
<title>LocaleService</title>
<ellipse fill="#fdb462" stroke="#000000" cx="498" cy="-104" rx="66.0281" ry="18"/>
<text text-anchor="middle" x="498" y="-99.8" font-family="Times,serif" font-size="14.00" fill="#000000">LocaleService</text>
</g>
<!-- LocaleService&#45;&gt;MyDatePicker -->
<g id="edge2" class="edge">
<title>LocaleService&#45;&gt;MyDatePicker</title>
<path fill="none" stroke="#000000" d="M461.2767,-119.0757C461.2767,-119.0757 461.2767,-140.7642 461.2767,-140.7642"/>
<polygon fill="#000000" stroke="#000000" points="457.7768,-140.7642 461.2767,-150.7642 464.7768,-140.7642 457.7768,-140.7642"/>
</g>
<!-- UtilService -->
<g id="node5" class="node">
<title>UtilService</title>
<ellipse fill="#fdb462" stroke="#000000" cx="359" cy="-104" rx="55.0285" ry="18"/>
<text text-anchor="middle" x="359" y="-99.8" font-family="Times,serif" font-size="14.00" fill="#000000">UtilService</text>
</g>
<!-- UtilService&#45;&gt;MyDatePicker -->
<g id="edge3" class="edge">
<title>UtilService&#45;&gt;MyDatePicker</title>
<path fill="none" stroke="#000000" d="M407.0705,-112.7662C407.0705,-112.7662 407.0705,-140.802 407.0705,-140.802"/>
<polygon fill="#000000" stroke="#000000" points="403.5706,-140.802 407.0705,-150.802 410.5706,-140.8021 403.5706,-140.802"/>
</g>
<!-- MYDP_VALUE_ACCESSOR -->
<g id="node6" class="node">
<title>MYDP_VALUE_ACCESSOR</title>
<ellipse fill="#fdb462" stroke="#000000" cx="155" cy="-104" rx="131.4018" ry="18"/>
<text text-anchor="middle" x="155" y="-99.8" font-family="Times,serif" font-size="14.00" fill="#000000">MYDP_VALUE_ACCESSOR</text>
</g>
<!-- MYDP_VALUE_ACCESSOR&#45;&gt;MyDatePicker -->
<g id="edge4" class="edge">
<title>MYDP_VALUE_ACCESSOR&#45;&gt;MyDatePicker</title>
<path fill="none" stroke="#000000" d="M279.7192,-109.7482C279.7192,-119.2029 279.7192,-137 279.7192,-137 279.7192,-137 400.1267,-137 400.1267,-137 400.1267,-137 400.1267,-140.7566 400.1267,-140.7566"/>
<polygon fill="#000000" stroke="#000000" points="396.6268,-140.7566 400.1267,-150.7566 403.6268,-140.7566 396.6268,-140.7566"/>
</g>
<!-- CommonModule -->
<g id="node7" class="node">
<title>CommonModule</title>
<polygon fill="#8dd3c7" stroke="#000000" points="248.6681,-187 245.6681,-191 224.6681,-191 221.6681,-187 137.3319,-187 137.3319,-151 248.6681,-151 248.6681,-187"/>
<text text-anchor="middle" x="193" y="-164.8" font-family="Times,serif" font-size="14.00" fill="#000000">CommonModule</text>
</g>
<!-- CommonModule&#45;&gt;MyDatePickerModule -->
<g id="edge6" class="edge">
<title>CommonModule&#45;&gt;MyDatePickerModule</title>
<path fill="none" stroke="#000000" d="M201.121,-187.1061C201.121,-187.1061 201.121,-205.991 201.121,-205.991"/>
<polygon fill="#000000" stroke="#000000" points="197.621,-205.9909 201.121,-215.991 204.621,-205.991 197.621,-205.9909"/>
</g>
<!-- FormsModule -->
<g id="node8" class="node">
<title>FormsModule</title>
<polygon fill="#8dd3c7" stroke="#000000" points="119.8288,-187 116.8288,-191 95.8288,-191 92.8288,-187 24.1712,-187 24.1712,-151 119.8288,-151 119.8288,-187"/>
<text text-anchor="middle" x="72" y="-164.8" font-family="Times,serif" font-size="14.00" fill="#000000">FormsModule</text>
</g>
<!-- FormsModule&#45;&gt;MyDatePickerModule -->
<g id="edge7" class="edge">
<title>FormsModule&#45;&gt;MyDatePickerModule</title>
<path fill="none" stroke="#000000" d="M101.0759,-187.1061C101.0759,-206.3391 101.0759,-234 101.0759,-234 101.0759,-234 143.2068,-234 143.2068,-234"/>
<polygon fill="#000000" stroke="#000000" points="143.2068,-237.5001 153.2068,-234 143.2067,-230.5001 143.2068,-237.5001"/>
</g>
</g>
</svg>
