<?xml version="1.0" encoding="UTF-8" standalone="no"?>
<!-- Created with Inkscape (http://www.inkscape.org/) -->

<svg
   xmlns:dc="http://purl.org/dc/elements/1.1/"
   xmlns:cc="http://creativecommons.org/ns#"
   xmlns:rdf="http://www.w3.org/1999/02/22-rdf-syntax-ns#"
   xmlns:svg="http://www.w3.org/2000/svg"
   xmlns="http://www.w3.org/2000/svg"
   xmlns:sodipodi="http://sodipodi.sourceforge.net/DTD/sodipodi-0.dtd"
   xmlns:inkscape="http://www.inkscape.org/namespaces/inkscape"
   version="1.1"
   id="svg2"
   width="170.66667"
   height="170.66667"
   viewBox="0 0 170.66667 170.66667"
   sodipodi:docname="ico1.svg"
   inkscape:version="0.92.1 r">
  <metadata
     id="metadata8">
    <rdf:RDF>
      <cc:Work
         rdf:about="">
        <dc:format>image/svg+xml</dc:format>
        <dc:type
           rdf:resource="http://purl.org/dc/dcmitype/StillImage" />
        <dc:title></dc:title>
      </cc:Work>
    </rdf:RDF>
  </metadata>
  <defs
     id="defs6" />
  <sodipodi:namedview
     pagecolor="#ffffff"
     bordercolor="#666666"
     borderopacity="1"
     objecttolerance="10"
     gridtolerance="10"
     guidetolerance="10"
     inkscape:pageopacity="0"
     inkscape:pageshadow="2"
     inkscape:window-width="1920"
     inkscape:window-height="1006"
     id="namedview4"
     showgrid="false"
     inkscape:pagecheckerboard="true"
     inkscape:zoom="3.9111843"
     inkscape:cx="81.42786"
     inkscape:cy="89.84004"
     inkscape:window-x="0"
     inkscape:window-y="0"
     inkscape:window-maximized="1"
     inkscape:current-layer="svg2" />
  <g
     id="g74"
     transform="matrix(0.99553611,0,0,1.0072029,0.07865362,0.46438853)">
    <path
       style="fill:#fefefe;stroke-width:1.33333337"
       d="M 84.132908,161.66667 C 84.055307,156.02251 84.55483,152 85.333335,152 c 1.556191,0 1.556191,11.14079 0,16 -0.759117,2.37035 -1.105916,0.54067 -1.200427,-6.33333 z m -26.799574,-2.13884 c -11.278392,-4.01155 -18.101155,-7.57712 -26.132437,-13.65677 -6.157022,-4.66084 -16.474186,-15.02141 -16.515409,-16.58488 -0.0104,-0.39261 3.802679,-2.59829 8.473403,-4.90153 l 8.492223,-4.18771 5.174444,5.32411 c 5.373457,5.52888 16.911426,13.01897 23.84111,15.47689 2.2,0.78032 5.2,1.84242 6.666667,2.36024 2.305644,0.814 1.955028,1.2487 -2.589796,3.21092 l -5.256465,2.26946 5.589798,2.23659 c 5.076872,2.03136 5.589796,2.6658 5.589796,6.91405 0,5.694 -1.246236,5.83782 -13.333334,1.53863 z m 40.000001,-0.0412 c 0,-1.89484 1.307295,-4.03656 3.234795,-5.29951 1.77914,-1.16573 3.98701,-4.19973 4.90638,-6.7422 1.3519,-3.7386 3.33795,-5.4663 10.38461,-9.03382 4.79217,-2.42614 12.02246,-7.48742 16.06731,-11.2473 l 7.35428,-6.83616 8.35965,4.12233 c 4.5978,2.26734 8.35964,4.51733 8.35964,5.00004 0,2.32173 -20.28817,19.71162 -27.34204,23.43606 -9.39672,4.96148 -23.16794,9.7806 -27.94923,9.7806 -2.668127,0 -3.375395,-0.66632 -3.375395,-3.17999 z m -20,-10.11621 c 1.1,-0.7313 3.05,-1.33883 4.333333,-1.35006 1.748432,-0.0153 2.333334,-1.12736 2.333334,-4.43633 0,-3.36051 -0.956008,-5.12273 -4,-7.37325 -5.154647,-3.811 -5.442166,-9.54954 -0.666667,-13.30595 2.940419,-2.31293 3.333333,-3.63638 3.333333,-11.22761 v -8.60561 l -5.411989,-2.44046 C 71.10642,97.858722 66.666668,92.440743 66.666668,87.710296 c 0,-3.265109 4.323943,-8.122746 11,-12.357704 3.422374,-2.170984 3.666667,-2.940357 3.666667,-11.547784 0,-6.233714 -0.540044,-9.376675 -1.666667,-9.699702 -15.601092,-4.473165 -21.368503,-9.011453 -20.746035,-16.324745 0.512095,-6.01655 4.899919,-9.59293 13.812238,-11.257931 3.509716,-0.655685 6.554353,-1.365208 6.765861,-1.576716 0.374558,-0.374556 -2.256606,-13.71566 -4.237505,-21.4859337 -1.09382,-4.29061362 -1.318939,-4.28242278 9.405441,-0.3422129 l 5.333334,1.9595028 0.39237,10.2920738 0.39237,10.292075 6.578345,-0.872648 c 5.235153,-0.694468 7.691113,-0.304953 12.028203,1.907664 9.21901,4.703186 6.34227,5.970432 -13.553289,5.970432 -14.914835,0 -18.53895,0.397559 -21.550708,2.364071 -5.115366,3.340055 -4.70398,7.319347 1.003216,9.703966 6.257063,2.614366 6.288455,2.597177 5.260798,-2.88071 -1.026205,-5.470145 0.491275,-7.134035 6.536279,-7.166909 l 3.754249,-0.02042 -0.942248,17.333334 c -0.593521,10.918242 -0.465221,17.333334 0.346664,17.333334 0.708903,0 2.6638,-1.4635 4.344216,-3.252222 l 3.055303,-3.25222 -3.489551,-3.234007 c -2.062968,-1.911894 -3.489551,-4.670492 -3.489551,-6.74778 0,-4.223516 0.29366,-4.254953 7.438327,-0.796278 7.555385,3.6575 9.853995,8.941528 6.734945,15.482249 -1.87301,3.92775 -4.24122,5.61531 -14.812736,10.555406 -15.895515,7.428015 -18.671373,11.951705 -10.136861,16.519583 1.795893,0.961207 2.043256,0.295812 1.663188,-4.473892 -0.395369,-4.961743 -0.04483,-5.786036 3.062737,-7.201938 1.930066,-0.879396 3.807379,-1.598901 4.17181,-1.598901 0.36443,0 0.246826,8.4 -0.261343,18.666665 -0.78386,15.836542 -0.631033,18.666672 1.007996,18.666672 5.193232,0 7.019671,-8.13183 2.465271,-10.9761 -1.661951,-1.0379 -2.666667,-3.10937 -2.666667,-5.49798 v -3.832617 l 3.666667,2.288167 c 5.792333,3.61467 8.333338,7.29536 8.333338,12.071 0,5.75257 -2.532843,8.11319 -11.503064,10.7209 -7.590438,2.2066 -9.495045,4.21812 -7.789396,8.22663 0.857746,2.01583 1.108956,1.8932 1.846096,-0.90115 0.469286,-1.77896 1.508294,-3.45283 2.308904,-3.7197 0.987003,-0.329 1.325406,2.64408 1.051091,9.23448 -0.270413,6.49668 -0.102107,8.01012 0.507565,4.5641 0.905356,-5.1173 0.930336,-5.13538 3.362336,-2.43254 2.951374,3.28005 2.507054,6.7724 -1.11687,8.77857 -1.466667,0.81193 -2.966667,1.80989 -3.333334,2.21771 -0.366666,0.4078 -3.066666,0.86533 -6,1.01672 -3.930949,0.20286 -4.80744,-0.0744 -3.333333,-1.05439 z m 20.333334,-16.41948 c -4.018675,-1.81971 -3.780434,-2.97082 1.026997,-4.96212 13.582534,-5.62607 14.169404,-22.69743 1.081665,-31.464871 -3.017194,-2.021211 -3.768425,-3.522335 -3.771496,-7.536273 -0.0035,-4.544849 0.586847,-5.376094 6.329505,-8.912709 7.81132,-4.810603 11,-9.983527 11,-17.845055 0,-7.074343 -4.51545,-13.467143 -11.60442,-16.429103 -5.894593,-2.46292 -6.067579,-6.46854 -0.22892,-5.300808 2.29167,0.458333 7.05168,0.833333 10.5778,0.833333 5.88753,0 6.96728,0.541712 13.22095,6.63298 25.46615,24.804799 19.02787,65.005556 -13.01083,81.239856 -9.12594,4.62421 -11.39545,5.20546 -14.621251,3.74477 z M 59.333334,129.76171 C 49.516292,124.68512 43.469429,119.4855 38.266918,111.64695 29.692222,98.727569 27.344814,84.514296 31.483693,70.575336 c 2.189893,-7.375145 9.025714,-18.876408 13.772467,-23.17216 2.542877,-2.301272 2.801882,-2.227955 8.075269,2.285868 2.996472,2.564868 8.57273,5.847137 12.391684,7.293932 6.691212,2.534936 6.958455,2.831383 7.353552,8.157113 0.233283,3.144546 -0.177734,5.526579 -0.953605,5.526579 -2.942053,0 -10.408792,8.139055 -12.061873,13.147942 -1.584226,4.800249 -1.470583,5.853001 1.235193,11.442388 1.962467,4.053913 4.717225,7.155592 8.068013,9.084062 6.082183,3.50046 7.791023,9.35152 3.98918,13.65894 -3.508688,3.97528 -5.353572,8.08037 -5.353572,11.91235 0,4.17116 -0.319982,4.16559 -8.666667,-0.15064 z M 4.6363718,111.66667 c -5.49503978,-14.933744 -6.25844,-34.134128 -1.9161315,-48.192889 1.4961322,-4.843912 3.0700119,-8.807113 3.4975104,-8.807113 0.4274985,0 4.3437103,1.95 8.7026923,4.333333 7.613543,4.16281 7.883971,4.49074 6.872055,8.333334 -1.385371,5.260732 -1.420115,28.185634 -0.05081,33.525885 1.043231,4.06858 0.848942,4.31501 -6.570109,8.33334 -8.5139255,4.61134 -9.6505656,4.87827 -10.5352032,2.47411 z M 154.92183,109.07415 c -6.81612,-3.84587 -7.03824,-4.14946 -6,-8.2006 1.37181,-5.352648 1.33924,-28.273666 -0.0476,-33.540215 -1.01192,-3.842594 -0.74149,-4.170524 6.87205,-8.333334 4.35898,-2.383333 8.27519,-4.333333 8.7027,-4.333333 0.42749,0 2.00137,3.963201 3.4975,8.807113 3.53228,11.436182 3.6626,29.923574 0.29036,41.189729 -1.40174,4.68305 -3.18992,8.08128 -4.31521,8.2006 -1.05687,0.11207 -5.10675,-1.59342 -8.99975,-3.78996 z M 22.333334,43.649884 c -4.216667,-2.35825 -7.666667,-4.688031 -7.666667,-5.177293 0,-0.489261 4.344017,-4.911461 9.653373,-9.82711 8.486035,-7.856769 27.23976,-19.3121475 31.616124,-19.3121475 1.23588,0 6.115657,7.9946215 5.162152,8.4572405 -5.702602,2.766776 -8.994638,5.744885 -11.448892,10.357135 -2.605455,4.896396 -16.961515,19.910251 -18.952686,19.821096 -0.383205,-0.01716 -4.146737,-1.960673 -8.363404,-4.318921 z M 131.66667,41.281173 c -4.74489,-4.703468 -6.33333,-7.278371 -6.33333,-10.266464 0,-5.395839 -4.25248,-10.422074 -12.24375,-14.471558 -4.73231,-2.398044 -6.42296,-3.953208 -5.86847,-5.398191 C 107.64951,10.02861 108,8.864306 108,8.5576168 c 0,-1.8870129 6.63256,0.2284752 17.02094,5.4289132 7.97503,3.992312 15.12669,8.919621 21.46886,14.791512 5.23062,4.84274 9.5102,9.210307 9.5102,9.705704 0,1.150295 -15.28442,9.589559 -16.83582,9.295864 -0.6403,-0.121213 -4.01418,-3.04551 -7.49751,-6.498437 z"
       id="path82"
       inkscape:connector-curvature="0" />
    <path
       style="fill:#fdfdfd;stroke-width:1.33333337"
       d="m 69.438597,159.22223 c 0.06397,-1.55327 0.379922,-1.8692 0.805556,-0.80556 0.385162,0.96249 0.337792,2.11249 -0.105266,2.55556 -0.443056,0.44305 -0.758188,-0.34445 -0.700294,-1.75 z M 88.105264,93.888891 c 0.06397,-1.553257 0.379922,-1.8692 0.805556,-0.805556 0.385162,0.9625 0.337792,2.1125 -0.105266,2.555556 -0.443056,0.443055 -0.758188,-0.344445 -0.700294,-1.75 z"
       id="path80"
       inkscape:connector-curvature="0" />
    <path
       style="fill:#fdfdfd;stroke-width:1.33333337"
       d="m 69.438597,159.22223 c 0.06397,-1.55327 0.379922,-1.8692 0.805556,-0.80556 0.385162,0.96249 0.337792,2.11249 -0.105266,2.55556 -0.443056,0.44305 -0.758188,-0.34445 -0.700294,-1.75 z M 88.105264,93.888891 c 0.06397,-1.553257 0.379922,-1.8692 0.805556,-0.805556 0.385162,0.9625 0.337792,2.1125 -0.105266,2.555556 -0.443056,0.443055 -0.758188,-0.344445 -0.700294,-1.75 z"
       id="path78"
       inkscape:connector-curvature="0" />
    <path
       style="fill:#fcfcfc;stroke-width:1.33333337"
       d="m 88.105264,93.888891 c 0.06397,-1.553257 0.379922,-1.8692 0.805556,-0.805556 0.385162,0.9625 0.337792,2.1125 -0.105266,2.555556 -0.443056,0.443055 -0.758188,-0.344445 -0.700294,-1.75 z"
       id="path76"
       inkscape:connector-curvature="0" />
  </g>
  <path
     style="fill:#000000;stroke-width:1.33333337"
     d=""
     id="path14"
     inkscape:connector-curvature="0" />
  <path
     style="fill:#000000;stroke-width:1.33333337"
     d=""
     id="path12"
     inkscape:connector-curvature="0" />
</svg>
