<?xml version="1.0" encoding="UTF-8" standalone="no"?>
<!DOCTYPE svg PUBLIC "-//W3C//DTD SVG 1.1//EN"
 "http://www.w3.org/Graphics/SVG/1.1/DTD/svg11.dtd">
<!-- Generated by graphviz version 2.40.1 (20161225.0304)
 -->
<!-- Title: dependencies Pages: 1 -->
<svg width="1888pt" height="284pt"
 viewBox="0.00 0.00 1888.00 284.00" xmlns="http://www.w3.org/2000/svg" xmlns:xlink="http://www.w3.org/1999/xlink">
<g id="graph0" class="graph" transform="scale(1 1) rotate(0) translate(4 280)">
<title>dependencies</title>
<polygon fill="#ffffff" stroke="transparent" points="-4,4 -4,-280 1884,-280 1884,4 -4,4"/>
<text text-anchor="start" x="919.0091" y="-42.4" font-family="sans-serif" font-weight="bold" font-size="14.00" fill="#000000">Legend</text>
<polygon fill="#ffffb3" stroke="transparent" points="706,-10 706,-30 726,-30 726,-10 706,-10"/>
<text text-anchor="start" x="729.629" y="-15.4" font-family="sans-serif" font-size="14.00" fill="#000000"> &#160;Declarations</text>
<polygon fill="#8dd3c7" stroke="transparent" points="819,-10 819,-30 839,-30 839,-10 819,-10"/>
<text text-anchor="start" x="842.7251" y="-15.4" font-family="sans-serif" font-size="14.00" fill="#000000"> &#160;Module</text>
<polygon fill="#80b1d3" stroke="transparent" points="905,-10 905,-30 925,-30 925,-10 905,-10"/>
<text text-anchor="start" x="928.7812" y="-15.4" font-family="sans-serif" font-size="14.00" fill="#000000"> &#160;Bootstrap</text>
<polygon fill="#fdb462" stroke="transparent" points="1002,-10 1002,-30 1022,-30 1022,-10 1002,-10"/>
<text text-anchor="start" x="1025.6732" y="-15.4" font-family="sans-serif" font-size="14.00" fill="#000000"> &#160;Providers</text>
<polygon fill="#fb8072" stroke="transparent" points="1098,-10 1098,-30 1118,-30 1118,-10 1098,-10"/>
<text text-anchor="start" x="1121.7258" y="-15.4" font-family="sans-serif" font-size="14.00" fill="#000000"> &#160;Exports</text>
<g id="clust1" class="cluster">
<title>cluster_UIModule</title>
<polygon fill="none" stroke="#000000" stroke-dasharray="1,5" points="8,-70 8,-268 1872,-268 1872,-70 8,-70"/>
</g>
<g id="clust2" class="cluster">
<title>cluster_UIModule_declarations</title>
<polygon fill="none" stroke="#000000" points="922,-78 922,-130 1864,-130 1864,-78 922,-78"/>
</g>
<g id="clust10" class="cluster">
<title>cluster_UIModule_imports</title>
<polygon fill="none" stroke="#000000" points="16,-78 16,-130 914,-130 914,-78 16,-78"/>
</g>
<g id="clust11" class="cluster">
<title>cluster_UIModule_exports</title>
<polygon fill="none" stroke="#000000" points="493,-208 493,-260 1461,-260 1461,-208 493,-208"/>
</g>
<!-- AlertComponent -->
<g id="node1" class="node">
<title>AlertComponent</title>
<polygon fill="#ffffb3" stroke="#000000" points="1856.0954,-122 1745.9046,-122 1745.9046,-86 1856.0954,-86 1856.0954,-122"/>
<text text-anchor="middle" x="1801" y="-99.8" font-family="Times,serif" font-size="14.00" fill="#000000">AlertComponent</text>
</g>
<!-- UIModule -->
<g id="node8" class="node">
<title>UIModule</title>
<polygon fill="#8dd3c7" stroke="#000000" points="1025.3177,-187 1022.3177,-191 1001.3177,-191 998.3177,-187 950.6823,-187 950.6823,-151 1025.3177,-151 1025.3177,-187"/>
<text text-anchor="middle" x="988" y="-164.8" font-family="Times,serif" font-size="14.00" fill="#000000">UIModule</text>
</g>
<!-- AlertComponent&#45;&gt;UIModule -->
<g id="edge1" class="edge">
<title>AlertComponent&#45;&gt;UIModule</title>
<path fill="none" stroke="#000000" d="M1801,-122.1289C1801,-142.5724 1801,-173 1801,-173 1801,-173 1035.3134,-173 1035.3134,-173"/>
<polygon fill="#000000" stroke="#000000" points="1035.3134,-169.5001 1025.3134,-173 1035.3134,-176.5001 1035.3134,-169.5001"/>
</g>
<!-- CoreComponent -->
<g id="node2" class="node">
<title>CoreComponent</title>
<polygon fill="#ffffb3" stroke="#000000" points="1728.0452,-122 1619.9548,-122 1619.9548,-86 1728.0452,-86 1728.0452,-122"/>
<text text-anchor="middle" x="1674" y="-99.8" font-family="Times,serif" font-size="14.00" fill="#000000">CoreComponent</text>
</g>
<!-- CoreComponent&#45;&gt;UIModule -->
<g id="edge2" class="edge">
<title>CoreComponent&#45;&gt;UIModule</title>
<path fill="none" stroke="#000000" d="M1674,-122.1061C1674,-141.3391 1674,-169 1674,-169 1674,-169 1035.3695,-169 1035.3695,-169"/>
<polygon fill="#000000" stroke="#000000" points="1035.3695,-165.5001 1025.3695,-169 1035.3695,-172.5001 1035.3695,-165.5001"/>
</g>
<!-- HomeComponent -->
<g id="node3" class="node">
<title>HomeComponent</title>
<polygon fill="#ffffb3" stroke="#000000" points="1601.5451,-122 1486.4549,-122 1486.4549,-86 1601.5451,-86 1601.5451,-122"/>
<text text-anchor="middle" x="1544" y="-99.8" font-family="Times,serif" font-size="14.00" fill="#000000">HomeComponent</text>
</g>
<!-- HomeComponent&#45;&gt;UIModule -->
<g id="edge3" class="edge">
<title>HomeComponent&#45;&gt;UIModule</title>
<path fill="none" stroke="#000000" d="M1544,-122.2667C1544,-140.5552 1544,-166 1544,-166 1544,-166 1035.3441,-166 1035.3441,-166"/>
<polygon fill="#000000" stroke="#000000" points="1035.3441,-162.5001 1025.3441,-166 1035.344,-169.5001 1035.3441,-162.5001"/>
</g>
<!-- LoadingComponent -->
<g id="node4" class="node">
<title>LoadingComponent</title>
<polygon fill="#ffffb3" stroke="#000000" points="1467.9902,-122 1340.0098,-122 1340.0098,-86 1467.9902,-86 1467.9902,-122"/>
<text text-anchor="middle" x="1404" y="-99.8" font-family="Times,serif" font-size="14.00" fill="#000000">LoadingComponent</text>
</g>
<!-- LoadingComponent&#45;&gt;UIModule -->
<g id="edge4" class="edge">
<title>LoadingComponent&#45;&gt;UIModule</title>
<path fill="none" stroke="#000000" d="M1377.6025,-122.0336C1377.6025,-139.0597 1377.6025,-162 1377.6025,-162 1377.6025,-162 1035.3567,-162 1035.3567,-162"/>
<polygon fill="#000000" stroke="#000000" points="1035.3568,-158.5001 1025.3567,-162 1035.3567,-165.5001 1035.3568,-158.5001"/>
</g>
<!-- ModalComponent -->
<g id="node5" class="node">
<title>ModalComponent</title>
<polygon fill="#ffffb3" stroke="#000000" points="1321.8823,-122 1204.1177,-122 1204.1177,-86 1321.8823,-86 1321.8823,-122"/>
<text text-anchor="middle" x="1263" y="-99.8" font-family="Times,serif" font-size="14.00" fill="#000000">ModalComponent</text>
</g>
<!-- ModalComponent&#45;&gt;UIModule -->
<g id="edge5" class="edge">
<title>ModalComponent&#45;&gt;UIModule</title>
<path fill="none" stroke="#000000" d="M1283.674,-122.0091C1283.674,-138.0494 1283.674,-159 1283.674,-159 1283.674,-159 1035.4473,-159 1035.4473,-159"/>
<polygon fill="#000000" stroke="#000000" points="1035.4474,-155.5001 1025.4473,-159 1035.4473,-162.5001 1035.4474,-155.5001"/>
</g>
<!-- NavbarComponent -->
<g id="node6" class="node">
<title>NavbarComponent</title>
<polygon fill="#ffffb3" stroke="#000000" points="1186.0297,-122 1063.9703,-122 1063.9703,-86 1186.0297,-86 1186.0297,-122"/>
<text text-anchor="middle" x="1125" y="-99.8" font-family="Times,serif" font-size="14.00" fill="#000000">NavbarComponent</text>
</g>
<!-- NavbarComponent&#45;&gt;UIModule -->
<g id="edge6" class="edge">
<title>NavbarComponent&#45;&gt;UIModule</title>
<path fill="none" stroke="#000000" d="M1067.6068,-122.1243C1067.6068,-136.7832 1067.6068,-155 1067.6068,-155 1067.6068,-155 1035.4723,-155 1035.4723,-155"/>
<polygon fill="#000000" stroke="#000000" points="1035.4724,-151.5001 1025.4723,-155 1035.4723,-158.5001 1035.4724,-151.5001"/>
</g>
<!-- SelectComponent -->
<g id="node7" class="node">
<title>SelectComponent</title>
<polygon fill="#ffffb3" stroke="#000000" points="1045.5409,-122 930.4591,-122 930.4591,-86 1045.5409,-86 1045.5409,-122"/>
<text text-anchor="middle" x="988" y="-99.8" font-family="Times,serif" font-size="14.00" fill="#000000">SelectComponent</text>
</g>
<!-- SelectComponent&#45;&gt;UIModule -->
<g id="edge7" class="edge">
<title>SelectComponent&#45;&gt;UIModule</title>
<path fill="none" stroke="#000000" d="M988,-122.1061C988,-122.1061 988,-140.991 988,-140.991"/>
<polygon fill="#000000" stroke="#000000" points="984.5001,-140.9909 988,-150.991 991.5001,-140.991 984.5001,-140.9909"/>
</g>
<!-- AlertComponent  -->
<g id="node15" class="node">
<title>AlertComponent </title>
<polygon fill="#fb8072" stroke="#000000" points="1452.5961,-252 1339.4039,-252 1339.4039,-216 1452.5961,-216 1452.5961,-252"/>
<text text-anchor="middle" x="1396" y="-229.8" font-family="Times,serif" font-size="14.00" fill="#000000">AlertComponent </text>
</g>
<!-- UIModule&#45;&gt;AlertComponent  -->
<g id="edge14" class="edge">
<title>UIModule&#45;&gt;AlertComponent </title>
<path fill="none" stroke="#000000" stroke-dasharray="5,2" d="M1025.1639,-177C1129.099,-177 1415.2001,-177 1415.2001,-177 1415.2001,-177 1415.2001,-205.9648 1415.2001,-205.9648"/>
<polygon fill="#000000" stroke="#000000" points="1411.7002,-205.9648 1415.2001,-215.9648 1418.7002,-205.9649 1411.7002,-205.9648"/>
</g>
<!-- CoreComponent  -->
<g id="node16" class="node">
<title>CoreComponent </title>
<polygon fill="#fb8072" stroke="#000000" points="1321.0442,-252 1208.9558,-252 1208.9558,-216 1321.0442,-216 1321.0442,-252"/>
<text text-anchor="middle" x="1265" y="-229.8" font-family="Times,serif" font-size="14.00" fill="#000000">CoreComponent </text>
</g>
<!-- UIModule&#45;&gt;CoreComponent  -->
<g id="edge15" class="edge">
<title>UIModule&#45;&gt;CoreComponent </title>
<path fill="none" stroke="#000000" stroke-dasharray="5,2" d="M1025.2869,-180C1096.8253,-180 1246.326,-180 1246.326,-180 1246.326,-180 1246.326,-205.7181 1246.326,-205.7181"/>
<polygon fill="#000000" stroke="#000000" points="1242.8261,-205.718 1246.326,-215.7181 1249.8261,-205.7181 1242.8261,-205.718"/>
</g>
<!-- HomeComponent  -->
<g id="node17" class="node">
<title>HomeComponent </title>
<polygon fill="#fb8072" stroke="#000000" points="1190.5442,-252 1071.4558,-252 1071.4558,-216 1190.5442,-216 1190.5442,-252"/>
<text text-anchor="middle" x="1131" y="-229.8" font-family="Times,serif" font-size="14.00" fill="#000000">HomeComponent </text>
</g>
<!-- UIModule&#45;&gt;HomeComponent  -->
<g id="edge16" class="edge">
<title>UIModule&#45;&gt;HomeComponent </title>
<path fill="none" stroke="#000000" stroke-dasharray="5,2" d="M1025.381,-184C1067.1148,-184 1128.8712,-184 1128.8712,-184 1128.8712,-184 1128.8712,-205.9489 1128.8712,-205.9489"/>
<polygon fill="#000000" stroke="#000000" points="1125.3712,-205.9488 1128.8712,-215.9489 1132.3712,-205.9489 1125.3712,-205.9488"/>
</g>
<!-- LoadingComponent  -->
<g id="node18" class="node">
<title>LoadingComponent </title>
<polygon fill="#fb8072" stroke="#000000" points="1053.9911,-252 922.0089,-252 922.0089,-216 1053.9911,-216 1053.9911,-252"/>
<text text-anchor="middle" x="988" y="-229.8" font-family="Times,serif" font-size="14.00" fill="#000000">LoadingComponent </text>
</g>
<!-- UIModule&#45;&gt;LoadingComponent  -->
<g id="edge17" class="edge">
<title>UIModule&#45;&gt;LoadingComponent </title>
<path fill="none" stroke="#000000" stroke-dasharray="5,2" d="M988,-187.1061C988,-187.1061 988,-205.991 988,-205.991"/>
<polygon fill="#000000" stroke="#000000" points="984.5001,-205.9909 988,-215.991 991.5001,-205.991 984.5001,-205.9909"/>
</g>
<!-- ModalComponent  -->
<g id="node19" class="node">
<title>ModalComponent </title>
<polygon fill="#fb8072" stroke="#000000" points="904.8828,-252 783.1172,-252 783.1172,-216 904.8828,-216 904.8828,-252"/>
<text text-anchor="middle" x="844" y="-229.8" font-family="Times,serif" font-size="14.00" fill="#000000">ModalComponent </text>
</g>
<!-- UIModule&#45;&gt;ModalComponent  -->
<g id="edge18" class="edge">
<title>UIModule&#45;&gt;ModalComponent </title>
<path fill="none" stroke="#000000" stroke-dasharray="5,2" d="M950.795,-184C904.3703,-184 831.0078,-184 831.0078,-184 831.0078,-184 831.0078,-205.9489 831.0078,-205.9489"/>
<polygon fill="#000000" stroke="#000000" points="827.5079,-205.9488 831.0078,-215.9489 834.5079,-205.9489 827.5079,-205.9488"/>
</g>
<!-- NavbarComponent  -->
<g id="node20" class="node">
<title>NavbarComponent </title>
<polygon fill="#fb8072" stroke="#000000" points="765.0288,-252 638.9712,-252 638.9712,-216 765.0288,-216 765.0288,-252"/>
<text text-anchor="middle" x="702" y="-229.8" font-family="Times,serif" font-size="14.00" fill="#000000">NavbarComponent </text>
</g>
<!-- UIModule&#45;&gt;NavbarComponent  -->
<g id="edge19" class="edge">
<title>UIModule&#45;&gt;NavbarComponent </title>
<path fill="none" stroke="#000000" stroke-dasharray="5,2" d="M950.6769,-180C877.3582,-180 721.5942,-180 721.5942,-180 721.5942,-180 721.5942,-205.7181 721.5942,-205.7181"/>
<polygon fill="#000000" stroke="#000000" points="718.0942,-205.718 721.5942,-215.7181 725.0942,-205.7181 718.0942,-205.718"/>
</g>
<!-- SelectComponent  -->
<g id="node21" class="node">
<title>SelectComponent </title>
<polygon fill="#fb8072" stroke="#000000" points="620.54,-252 501.46,-252 501.46,-216 620.54,-216 620.54,-252"/>
<text text-anchor="middle" x="561" y="-229.8" font-family="Times,serif" font-size="14.00" fill="#000000">SelectComponent </text>
</g>
<!-- UIModule&#45;&gt;SelectComponent  -->
<g id="edge20" class="edge">
<title>UIModule&#45;&gt;SelectComponent </title>
<path fill="none" stroke="#000000" stroke-dasharray="5,2" d="M950.8326,-177C852.4848,-177 592.928,-177 592.928,-177 592.928,-177 592.928,-205.9648 592.928,-205.9648"/>
<polygon fill="#000000" stroke="#000000" points="589.428,-205.9648 592.928,-215.9648 596.428,-205.9649 589.428,-205.9648"/>
</g>
<!-- CommonModule -->
<g id="node9" class="node">
<title>CommonModule</title>
<polygon fill="#8dd3c7" stroke="#000000" points="905.6681,-122 902.6681,-126 881.6681,-126 878.6681,-122 794.3319,-122 794.3319,-86 905.6681,-86 905.6681,-122"/>
<text text-anchor="middle" x="850" y="-99.8" font-family="Times,serif" font-size="14.00" fill="#000000">CommonModule</text>
</g>
<!-- CommonModule&#45;&gt;UIModule -->
<g id="edge8" class="edge">
<title>CommonModule&#45;&gt;UIModule</title>
<path fill="none" stroke="#000000" d="M867.8495,-122.1243C867.8495,-136.7832 867.8495,-155 867.8495,-155 867.8495,-155 940.6422,-155 940.6422,-155"/>
<polygon fill="#000000" stroke="#000000" points="940.6423,-158.5001 950.6422,-155 940.6422,-151.5001 940.6423,-158.5001"/>
</g>
<!-- RouterModule -->
<g id="node10" class="node">
<title>RouterModule</title>
<polygon fill="#8dd3c7" stroke="#000000" points="775.6528,-122 772.6528,-126 751.6528,-126 748.6528,-122 678.3472,-122 678.3472,-86 775.6528,-86 775.6528,-122"/>
<text text-anchor="middle" x="727" y="-99.8" font-family="Times,serif" font-size="14.00" fill="#000000">RouterModule</text>
</g>
<!-- RouterModule&#45;&gt;UIModule -->
<g id="edge9" class="edge">
<title>RouterModule&#45;&gt;UIModule</title>
<path fill="none" stroke="#000000" d="M770.4203,-122.0091C770.4203,-138.0494 770.4203,-159 770.4203,-159 770.4203,-159 940.5967,-159 940.5967,-159"/>
<polygon fill="#000000" stroke="#000000" points="940.5967,-162.5001 950.5967,-159 940.5967,-155.5001 940.5967,-162.5001"/>
</g>
<!-- FormsModule -->
<g id="node11" class="node">
<title>FormsModule</title>
<polygon fill="#8dd3c7" stroke="#000000" points="660.8288,-122 657.8288,-126 636.8288,-126 633.8288,-122 565.1712,-122 565.1712,-86 660.8288,-86 660.8288,-122"/>
<text text-anchor="middle" x="613" y="-99.8" font-family="Times,serif" font-size="14.00" fill="#000000">FormsModule</text>
</g>
<!-- FormsModule&#45;&gt;UIModule -->
<g id="edge10" class="edge">
<title>FormsModule&#45;&gt;UIModule</title>
<path fill="none" stroke="#000000" d="M649.8249,-122.0336C649.8249,-139.0597 649.8249,-162 649.8249,-162 649.8249,-162 940.5172,-162 940.5172,-162"/>
<polygon fill="#000000" stroke="#000000" points="940.5173,-165.5001 950.5172,-162 940.5172,-158.5001 940.5173,-165.5001"/>
</g>
<!-- ReactiveFormsModule -->
<g id="node12" class="node">
<title>ReactiveFormsModule</title>
<polygon fill="#8dd3c7" stroke="#000000" points="547.3047,-122 544.3047,-126 523.3047,-126 520.3047,-122 402.6953,-122 402.6953,-86 547.3047,-86 547.3047,-122"/>
<text text-anchor="middle" x="475" y="-99.8" font-family="Times,serif" font-size="14.00" fill="#000000">ReactiveFormsModule</text>
</g>
<!-- ReactiveFormsModule&#45;&gt;UIModule -->
<g id="edge11" class="edge">
<title>ReactiveFormsModule&#45;&gt;UIModule</title>
<path fill="none" stroke="#000000" d="M524.3161,-122.2667C524.3161,-140.5552 524.3161,-166 524.3161,-166 524.3161,-166 940.8386,-166 940.8386,-166"/>
<polygon fill="#000000" stroke="#000000" points="940.8386,-169.5001 950.8386,-166 940.8386,-162.5001 940.8386,-169.5001"/>
</g>
<!-- ModalModule.forRoot() -->
<g id="node13" class="node">
<title>ModalModule.forRoot()</title>
<polygon fill="#8dd3c7" stroke="#000000" points="385.4699,-122 382.4699,-126 361.4699,-126 358.4699,-122 232.5301,-122 232.5301,-86 385.4699,-86 385.4699,-122"/>
<text text-anchor="middle" x="309" y="-99.8" font-family="Times,serif" font-size="14.00" fill="#000000">ModalModule.forRoot()</text>
</g>
<!-- ModalModule.forRoot()&#45;&gt;UIModule -->
<g id="edge12" class="edge">
<title>ModalModule.forRoot()&#45;&gt;UIModule</title>
<path fill="none" stroke="#000000" d="M309,-122.1061C309,-141.3391 309,-169 309,-169 309,-169 940.5268,-169 940.5268,-169"/>
<polygon fill="#000000" stroke="#000000" points="940.5269,-172.5001 950.5268,-169 940.5268,-165.5001 940.5269,-172.5001"/>
</g>
<!-- BsDropdownModule.forRoot() -->
<g id="node14" class="node">
<title>BsDropdownModule.forRoot()</title>
<polygon fill="#8dd3c7" stroke="#000000" points="214.0749,-122 211.0749,-126 190.0749,-126 187.0749,-122 23.9251,-122 23.9251,-86 214.0749,-86 214.0749,-122"/>
<text text-anchor="middle" x="119" y="-99.8" font-family="Times,serif" font-size="14.00" fill="#000000">BsDropdownModule.forRoot()</text>
</g>
<!-- BsDropdownModule.forRoot()&#45;&gt;UIModule -->
<g id="edge13" class="edge">
<title>BsDropdownModule.forRoot()&#45;&gt;UIModule</title>
<path fill="none" stroke="#000000" d="M119,-122.1289C119,-142.5724 119,-173 119,-173 119,-173 940.6602,-173 940.6602,-173"/>
<polygon fill="#000000" stroke="#000000" points="940.6602,-176.5001 950.6602,-173 940.6601,-169.5001 940.6602,-176.5001"/>
</g>
</g>
</svg>
