<?xml version="1.0" encoding="UTF-8" standalone="no"?>
<!DOCTYPE svg PUBLIC "-//W3C//DTD SVG 1.1//EN"
 "http://www.w3.org/Graphics/SVG/1.1/DTD/svg11.dtd">
<!-- Generated by graphviz version 2.40.1 (20161225.0304)
 -->
<!-- Title: dependencies Pages: 1 -->
<svg width="5084pt" height="211pt"
 viewBox="0.00 0.00 5084.00 211.00" xmlns="http://www.w3.org/2000/svg" xmlns:xlink="http://www.w3.org/1999/xlink">
<g id="graph0" class="graph" transform="scale(1 1) rotate(0) translate(4 207)">
<title>dependencies</title>
<polygon fill="#ffffff" stroke="transparent" points="-4,4 -4,-207 5080,-207 5080,4 -4,4"/>
<text text-anchor="start" x="2517.0091" y="-42.4" font-family="sans-serif" font-weight="bold" font-size="14.00" fill="#000000">Legend</text>
<polygon fill="#ffffb3" stroke="transparent" points="2304,-10 2304,-30 2324,-30 2324,-10 2304,-10"/>
<text text-anchor="start" x="2327.629" y="-15.4" font-family="sans-serif" font-size="14.00" fill="#000000"> &#160;Declarations</text>
<polygon fill="#8dd3c7" stroke="transparent" points="2417,-10 2417,-30 2437,-30 2437,-10 2417,-10"/>
<text text-anchor="start" x="2440.7251" y="-15.4" font-family="sans-serif" font-size="14.00" fill="#000000"> &#160;Module</text>
<polygon fill="#80b1d3" stroke="transparent" points="2503,-10 2503,-30 2523,-30 2523,-10 2503,-10"/>
<text text-anchor="start" x="2526.7812" y="-15.4" font-family="sans-serif" font-size="14.00" fill="#000000"> &#160;Bootstrap</text>
<polygon fill="#fdb462" stroke="transparent" points="2600,-10 2600,-30 2620,-30 2620,-10 2600,-10"/>
<text text-anchor="start" x="2623.6732" y="-15.4" font-family="sans-serif" font-size="14.00" fill="#000000"> &#160;Providers</text>
<polygon fill="#fb8072" stroke="transparent" points="2696,-10 2696,-30 2716,-30 2716,-10 2696,-10"/>
<text text-anchor="start" x="2719.7258" y="-15.4" font-family="sans-serif" font-size="14.00" fill="#000000"> &#160;Exports</text>
<g id="clust1" class="cluster">
<title>cluster_AdminModule</title>
<polygon fill="none" stroke="#000000" stroke-dasharray="1,5" points="8,-70 8,-195 5068,-195 5068,-70 8,-70"/>
</g>
<g id="clust2" class="cluster">
<title>cluster_AdminModule_declarations</title>
<polygon fill="none" stroke="#000000" points="3268,-78 3268,-130 5060,-130 5060,-78 3268,-78"/>
</g>
<g id="clust13" class="cluster">
<title>cluster_AdminModule_imports</title>
<polygon fill="none" stroke="#000000" points="1881,-78 1881,-130 3260,-130 3260,-78 1881,-78"/>
</g>
<g id="clust16" class="cluster">
<title>cluster_AdminModule_providers</title>
<polygon fill="none" stroke="#000000" points="16,-78 16,-130 1873,-130 1873,-78 16,-78"/>
</g>
<!-- AdminHomeComponent -->
<g id="node1" class="node">
<title>AdminHomeComponent</title>
<polygon fill="#ffffb3" stroke="#000000" points="5052.4326,-122 4897.5674,-122 4897.5674,-86 5052.4326,-86 5052.4326,-122"/>
<text text-anchor="middle" x="4975" y="-99.8" font-family="Times,serif" font-size="14.00" fill="#000000">AdminHomeComponent</text>
</g>
<!-- AdminModule -->
<g id="node11" class="node">
<title>AdminModule</title>
<polygon fill="#8dd3c7" stroke="#000000" points="2697.4386,-187 2694.4386,-191 2673.4386,-191 2670.4386,-187 2598.5614,-187 2598.5614,-151 2697.4386,-151 2697.4386,-187"/>
<text text-anchor="middle" x="2648" y="-164.8" font-family="Times,serif" font-size="14.00" fill="#000000">AdminModule</text>
</g>
<!-- AdminHomeComponent&#45;&gt;AdminModule -->
<g id="edge1" class="edge">
<title>AdminHomeComponent&#45;&gt;AdminModule</title>
<path fill="none" stroke="#000000" d="M4975,-122.3802C4975,-146.2785 4975,-185 4975,-185 4975,-185 2707.4091,-185 2707.4091,-185"/>
<polygon fill="#000000" stroke="#000000" points="2707.4091,-181.5001 2697.4091,-185 2707.409,-188.5001 2707.4091,-181.5001"/>
</g>
<!-- SidebarComponent -->
<g id="node2" class="node">
<title>SidebarComponent</title>
<polygon fill="#ffffb3" stroke="#000000" points="4880.0954,-122 4755.9046,-122 4755.9046,-86 4880.0954,-86 4880.0954,-122"/>
<text text-anchor="middle" x="4818" y="-99.8" font-family="Times,serif" font-size="14.00" fill="#000000">SidebarComponent</text>
</g>
<!-- SidebarComponent&#45;&gt;AdminModule -->
<g id="edge2" class="edge">
<title>SidebarComponent&#45;&gt;AdminModule</title>
<path fill="none" stroke="#000000" d="M4818,-122.0908C4818,-145.1328 4818,-182 4818,-182 4818,-182 2707.4007,-182 2707.4007,-182"/>
<polygon fill="#000000" stroke="#000000" points="2707.4007,-178.5001 2697.4007,-182 2707.4006,-185.5001 2707.4007,-178.5001"/>
</g>
<!-- TurnosComponent -->
<g id="node3" class="node">
<title>TurnosComponent</title>
<polygon fill="#ffffb3" stroke="#000000" points="4737.4902,-122 4616.5098,-122 4616.5098,-86 4737.4902,-86 4737.4902,-122"/>
<text text-anchor="middle" x="4677" y="-99.8" font-family="Times,serif" font-size="14.00" fill="#000000">TurnosComponent</text>
</g>
<!-- TurnosComponent&#45;&gt;AdminModule -->
<g id="edge3" class="edge">
<title>TurnosComponent&#45;&gt;AdminModule</title>
<path fill="none" stroke="#000000" d="M4677,-122.0109C4677,-144.4852 4677,-180 4677,-180 4677,-180 2707.4004,-180 2707.4004,-180"/>
<polygon fill="#000000" stroke="#000000" points="2707.4005,-176.5001 2697.4004,-180 2707.4004,-183.5001 2707.4005,-176.5001"/>
</g>
<!-- EspecialidadesComponent -->
<g id="node4" class="node">
<title>EspecialidadesComponent</title>
<polygon fill="#ffffb3" stroke="#000000" points="4598.0197,-122 4433.9803,-122 4433.9803,-86 4598.0197,-86 4598.0197,-122"/>
<text text-anchor="middle" x="4516" y="-99.8" font-family="Times,serif" font-size="14.00" fill="#000000">EspecialidadesComponent</text>
</g>
<!-- EspecialidadesComponent&#45;&gt;AdminModule -->
<g id="edge4" class="edge">
<title>EspecialidadesComponent&#45;&gt;AdminModule</title>
<path fill="none" stroke="#000000" d="M4516,-122.0449C4516,-143.6623 4516,-177 4516,-177 4516,-177 2707.4833,-177 2707.4833,-177"/>
<polygon fill="#000000" stroke="#000000" points="2707.4834,-173.5001 2697.4833,-177 2707.4833,-180.5001 2707.4834,-173.5001"/>
</g>
<!-- CentrosSaludComponent -->
<g id="node5" class="node">
<title>CentrosSaludComponent</title>
<polygon fill="#ffffb3" stroke="#000000" points="4415.2674,-122 4258.7326,-122 4258.7326,-86 4415.2674,-86 4415.2674,-122"/>
<text text-anchor="middle" x="4337" y="-99.8" font-family="Times,serif" font-size="14.00" fill="#000000">CentrosSaludComponent</text>
</g>
<!-- CentrosSaludComponent&#45;&gt;AdminModule -->
<g id="edge5" class="edge">
<title>CentrosSaludComponent&#45;&gt;AdminModule</title>
<path fill="none" stroke="#000000" d="M4337,-122.2843C4337,-143.3211 4337,-175 4337,-175 4337,-175 2707.6339,-175 2707.6339,-175"/>
<polygon fill="#000000" stroke="#000000" points="2707.6339,-171.5001 2697.6339,-175 2707.6338,-178.5001 2707.6339,-171.5001"/>
</g>
<!-- ProfesionalesComponent -->
<g id="node6" class="node">
<title>ProfesionalesComponent</title>
<polygon fill="#ffffb3" stroke="#000000" points="4240.2506,-122 4083.7494,-122 4083.7494,-86 4240.2506,-86 4240.2506,-122"/>
<text text-anchor="middle" x="4162" y="-99.8" font-family="Times,serif" font-size="14.00" fill="#000000">ProfesionalesComponent</text>
</g>
<!-- ProfesionalesComponent&#45;&gt;AdminModule -->
<g id="edge6" class="edge">
<title>ProfesionalesComponent&#45;&gt;AdminModule</title>
<path fill="none" stroke="#000000" d="M4162,-122.2228C4162,-142.3652 4162,-172 4162,-172 4162,-172 2707.5127,-172 2707.5127,-172"/>
<polygon fill="#000000" stroke="#000000" points="2707.5128,-168.5001 2697.5127,-172 2707.5127,-175.5001 2707.5128,-168.5001"/>
</g>
<!-- EspecialidadBusquedaComponent -->
<g id="node7" class="node">
<title>EspecialidadBusquedaComponent</title>
<polygon fill="#ffffb3" stroke="#000000" points="4066.0702,-122 3857.9298,-122 3857.9298,-86 4066.0702,-86 4066.0702,-122"/>
<text text-anchor="middle" x="3962" y="-99.8" font-family="Times,serif" font-size="14.00" fill="#000000">EspecialidadBusquedaComponent</text>
</g>
<!-- EspecialidadBusquedaComponent&#45;&gt;AdminModule -->
<g id="edge7" class="edge">
<title>EspecialidadBusquedaComponent&#45;&gt;AdminModule</title>
<path fill="none" stroke="#000000" d="M3962,-122.1061C3962,-141.3391 3962,-169 3962,-169 3962,-169 2707.5083,-169 2707.5083,-169"/>
<polygon fill="#000000" stroke="#000000" points="2707.5083,-165.5001 2697.5083,-169 2707.5082,-172.5001 2707.5083,-165.5001"/>
</g>
<!-- ProfesionalBusquedaComponent -->
<g id="node8" class="node">
<title>ProfesionalBusquedaComponent</title>
<polygon fill="#ffffb3" stroke="#000000" points="3840.3018,-122 3639.6982,-122 3639.6982,-86 3840.3018,-86 3840.3018,-122"/>
<text text-anchor="middle" x="3740" y="-99.8" font-family="Times,serif" font-size="14.00" fill="#000000">ProfesionalBusquedaComponent</text>
</g>
<!-- ProfesionalBusquedaComponent&#45;&gt;AdminModule -->
<g id="edge8" class="edge">
<title>ProfesionalBusquedaComponent&#45;&gt;AdminModule</title>
<path fill="none" stroke="#000000" d="M3740,-122.2222C3740,-140.8285 3740,-167 3740,-167 3740,-167 2707.3999,-167 2707.3999,-167"/>
<polygon fill="#000000" stroke="#000000" points="2707.3999,-163.5001 2697.3999,-167 2707.3999,-170.5001 2707.3999,-163.5001"/>
</g>
<!-- TurnoBusquedaComponent -->
<g id="node9" class="node">
<title>TurnoBusquedaComponent</title>
<polygon fill="#ffffb3" stroke="#000000" points="3621.2562,-122 3450.7438,-122 3450.7438,-86 3621.2562,-86 3621.2562,-122"/>
<text text-anchor="middle" x="3536" y="-99.8" font-family="Times,serif" font-size="14.00" fill="#000000">TurnoBusquedaComponent</text>
</g>
<!-- TurnoBusquedaComponent&#45;&gt;AdminModule -->
<g id="edge9" class="edge">
<title>TurnoBusquedaComponent&#45;&gt;AdminModule</title>
<path fill="none" stroke="#000000" d="M3536,-122.002C3536,-139.6754 3536,-164 3536,-164 3536,-164 2707.3261,-164 2707.3261,-164"/>
<polygon fill="#000000" stroke="#000000" points="2707.3261,-160.5001 2697.3261,-164 2707.3261,-167.5001 2707.3261,-160.5001"/>
</g>
<!-- MotivoTurnoComponent -->
<g id="node10" class="node">
<title>MotivoTurnoComponent</title>
<polygon fill="#ffffb3" stroke="#000000" points="3432.2716,-122 3275.7284,-122 3275.7284,-86 3432.2716,-86 3432.2716,-122"/>
<text text-anchor="middle" x="3354" y="-99.8" font-family="Times,serif" font-size="14.00" fill="#000000">MotivoTurnoComponent</text>
</g>
<!-- MotivoTurnoComponent&#45;&gt;AdminModule -->
<g id="edge10" class="edge">
<title>MotivoTurnoComponent&#45;&gt;AdminModule</title>
<path fill="none" stroke="#000000" d="M3354,-122.0336C3354,-139.0597 3354,-162 3354,-162 3354,-162 2707.3639,-162 2707.3639,-162"/>
<polygon fill="#000000" stroke="#000000" points="2707.364,-158.5001 2697.3639,-162 2707.3639,-165.5001 2707.364,-158.5001"/>
</g>
<!-- AdminRoutingModule -->
<g id="node12" class="node">
<title>AdminRoutingModule</title>
<polygon fill="#8dd3c7" stroke="#000000" points="3251.5561,-122 3248.5561,-126 3227.5561,-126 3224.5561,-122 3108.4439,-122 3108.4439,-86 3251.5561,-86 3251.5561,-122"/>
<text text-anchor="middle" x="3180" y="-99.8" font-family="Times,serif" font-size="14.00" fill="#000000">AdminRoutingModule</text>
</g>
<!-- AdminRoutingModule&#45;&gt;AdminModule -->
<g id="edge11" class="edge">
<title>AdminRoutingModule&#45;&gt;AdminModule</title>
<path fill="none" stroke="#000000" d="M3180,-122.0091C3180,-138.0494 3180,-159 3180,-159 3180,-159 2707.5715,-159 2707.5715,-159"/>
<polygon fill="#000000" stroke="#000000" points="2707.5716,-155.5001 2697.5715,-159 2707.5715,-162.5001 2707.5716,-155.5001"/>
</g>
<!-- CommonModule -->
<g id="node13" class="node">
<title>CommonModule</title>
<polygon fill="#8dd3c7" stroke="#000000" points="3089.6681,-122 3086.6681,-126 3065.6681,-126 3062.6681,-122 2978.3319,-122 2978.3319,-86 3089.6681,-86 3089.6681,-122"/>
<text text-anchor="middle" x="3034" y="-99.8" font-family="Times,serif" font-size="14.00" fill="#000000">CommonModule</text>
</g>
<!-- CommonModule&#45;&gt;AdminModule -->
<g id="edge12" class="edge">
<title>CommonModule&#45;&gt;AdminModule</title>
<path fill="none" stroke="#000000" d="M3034,-122.2396C3034,-137.5706 3034,-157 3034,-157 3034,-157 2707.2792,-157 2707.2792,-157"/>
<polygon fill="#000000" stroke="#000000" points="2707.2793,-153.5001 2697.2792,-157 2707.2792,-160.5001 2707.2793,-153.5001"/>
</g>
<!-- FormsModule -->
<g id="node14" class="node">
<title>FormsModule</title>
<polygon fill="#8dd3c7" stroke="#000000" points="2960.8288,-122 2957.8288,-126 2936.8288,-126 2933.8288,-122 2865.1712,-122 2865.1712,-86 2960.8288,-86 2960.8288,-122"/>
<text text-anchor="middle" x="2913" y="-99.8" font-family="Times,serif" font-size="14.00" fill="#000000">FormsModule</text>
</g>
<!-- FormsModule&#45;&gt;AdminModule -->
<g id="edge13" class="edge">
<title>FormsModule&#45;&gt;AdminModule</title>
<path fill="none" stroke="#000000" d="M2913,-122.0511C2913,-136.373 2913,-154 2913,-154 2913,-154 2707.2234,-154 2707.2234,-154"/>
<polygon fill="#000000" stroke="#000000" points="2707.2235,-150.5001 2697.2234,-154 2707.2234,-157.5001 2707.2235,-150.5001"/>
</g>
<!-- ReactiveFormsModule -->
<g id="node15" class="node">
<title>ReactiveFormsModule</title>
<polygon fill="#8dd3c7" stroke="#000000" points="2847.3047,-122 2844.3047,-126 2823.3047,-126 2820.3047,-122 2702.6953,-122 2702.6953,-86 2847.3047,-86 2847.3047,-122"/>
<text text-anchor="middle" x="2775" y="-99.8" font-family="Times,serif" font-size="14.00" fill="#000000">ReactiveFormsModule</text>
</g>
<!-- ReactiveFormsModule&#45;&gt;AdminModule -->
<g id="edge14" class="edge">
<title>ReactiveFormsModule&#45;&gt;AdminModule</title>
<path fill="none" stroke="#000000" d="M2702.8423,-104C2695.7925,-104 2691.1887,-104 2691.1887,-104 2691.1887,-104 2691.1887,-140.8939 2691.1887,-140.8939"/>
<polygon fill="#000000" stroke="#000000" points="2687.6887,-140.8938 2691.1887,-150.8939 2694.6887,-140.8939 2687.6887,-140.8938"/>
</g>
<!-- UIModule -->
<g id="node16" class="node">
<title>UIModule</title>
<polygon fill="#8dd3c7" stroke="#000000" points="2685.3177,-122 2682.3177,-126 2661.3177,-126 2658.3177,-122 2610.6823,-122 2610.6823,-86 2685.3177,-86 2685.3177,-122"/>
<text text-anchor="middle" x="2648" y="-99.8" font-family="Times,serif" font-size="14.00" fill="#000000">UIModule</text>
</g>
<!-- UIModule&#45;&gt;AdminModule -->
<g id="edge15" class="edge">
<title>UIModule&#45;&gt;AdminModule</title>
<path fill="none" stroke="#000000" d="M2648,-122.1061C2648,-122.1061 2648,-140.991 2648,-140.991"/>
<polygon fill="#000000" stroke="#000000" points="2644.5001,-140.9909 2648,-150.991 2651.5001,-140.991 2644.5001,-140.9909"/>
</g>
<!-- ModalModule.forRoot() -->
<g id="node17" class="node">
<title>ModalModule.forRoot()</title>
<polygon fill="#8dd3c7" stroke="#000000" points="2593.4699,-122 2590.4699,-126 2569.4699,-126 2566.4699,-122 2440.5301,-122 2440.5301,-86 2593.4699,-86 2593.4699,-122"/>
<text text-anchor="middle" x="2517" y="-99.8" font-family="Times,serif" font-size="14.00" fill="#000000">ModalModule.forRoot()</text>
</g>
<!-- ModalModule.forRoot()&#45;&gt;AdminModule -->
<g id="edge16" class="edge">
<title>ModalModule.forRoot()&#45;&gt;AdminModule</title>
<path fill="none" stroke="#000000" d="M2593.3315,-104C2600.3039,-104 2604.8114,-104 2604.8114,-104 2604.8114,-104 2604.8114,-140.8939 2604.8114,-140.8939"/>
<polygon fill="#000000" stroke="#000000" points="2601.3114,-140.8938 2604.8114,-150.8939 2608.3114,-140.8939 2601.3114,-140.8938"/>
</g>
<!-- PaginationModule.forRoot() -->
<g id="node18" class="node">
<title>PaginationModule.forRoot()</title>
<polygon fill="#8dd3c7" stroke="#000000" points="2422.8031,-122 2419.8031,-126 2398.8031,-126 2395.8031,-122 2247.1969,-122 2247.1969,-86 2422.8031,-86 2422.8031,-122"/>
<text text-anchor="middle" x="2335" y="-99.8" font-family="Times,serif" font-size="14.00" fill="#000000">PaginationModule.forRoot()</text>
</g>
<!-- PaginationModule.forRoot()&#45;&gt;AdminModule -->
<g id="edge17" class="edge">
<title>PaginationModule.forRoot()&#45;&gt;AdminModule</title>
<path fill="none" stroke="#000000" d="M2335,-122.0511C2335,-136.373 2335,-154 2335,-154 2335,-154 2588.7494,-154 2588.7494,-154"/>
<polygon fill="#000000" stroke="#000000" points="2588.7495,-157.5001 2598.7494,-154 2588.7494,-150.5001 2588.7495,-157.5001"/>
</g>
<!-- TimepickerModule.forRoot() -->
<g id="node19" class="node">
<title>TimepickerModule.forRoot()</title>
<polygon fill="#8dd3c7" stroke="#000000" points="2229.4488,-122 2226.4488,-126 2205.4488,-126 2202.4488,-122 2048.5512,-122 2048.5512,-86 2229.4488,-86 2229.4488,-122"/>
<text text-anchor="middle" x="2139" y="-99.8" font-family="Times,serif" font-size="14.00" fill="#000000">TimepickerModule.forRoot()</text>
</g>
<!-- TimepickerModule.forRoot()&#45;&gt;AdminModule -->
<g id="edge18" class="edge">
<title>TimepickerModule.forRoot()&#45;&gt;AdminModule</title>
<path fill="none" stroke="#000000" d="M2139,-122.2396C2139,-137.5706 2139,-157 2139,-157 2139,-157 2588.7325,-157 2588.7325,-157"/>
<polygon fill="#000000" stroke="#000000" points="2588.7325,-160.5001 2598.7325,-157 2588.7324,-153.5001 2588.7325,-160.5001"/>
</g>
<!-- MyDatePickerModule -->
<g id="node20" class="node">
<title>MyDatePickerModule</title>
<polygon fill="#8dd3c7" stroke="#000000" points="2030.6839,-122 2027.6839,-126 2006.6839,-126 2003.6839,-122 1889.3161,-122 1889.3161,-86 2030.6839,-86 2030.6839,-122"/>
<text text-anchor="middle" x="1960" y="-99.8" font-family="Times,serif" font-size="14.00" fill="#000000">MyDatePickerModule</text>
</g>
<!-- MyDatePickerModule&#45;&gt;AdminModule -->
<g id="edge19" class="edge">
<title>MyDatePickerModule&#45;&gt;AdminModule</title>
<path fill="none" stroke="#000000" d="M1960,-122.0091C1960,-138.0494 1960,-159 1960,-159 1960,-159 2588.5207,-159 2588.5207,-159"/>
<polygon fill="#000000" stroke="#000000" points="2588.5208,-162.5001 2598.5207,-159 2588.5207,-155.5001 2588.5208,-162.5001"/>
</g>
<!-- Store -->
<g id="node21" class="node">
<title>Store</title>
<ellipse fill="#fdb462" stroke="#000000" cx="1834" cy="-104" rx="31.3371" ry="18"/>
<text text-anchor="middle" x="1834" y="-99.8" font-family="Times,serif" font-size="14.00" fill="#000000">Store</text>
</g>
<!-- Store&#45;&gt;AdminModule -->
<g id="edge20" class="edge">
<title>Store&#45;&gt;AdminModule</title>
<path fill="none" stroke="#000000" d="M1834,-122.0336C1834,-139.0597 1834,-162 1834,-162 1834,-162 2588.6103,-162 2588.6103,-162"/>
<polygon fill="#000000" stroke="#000000" points="2588.6103,-165.5001 2598.6103,-162 2588.6103,-158.5001 2588.6103,-165.5001"/>
</g>
<!-- AdminService -->
<g id="node22" class="node">
<title>AdminService</title>
<ellipse fill="#fdb462" stroke="#000000" cx="1718" cy="-104" rx="66.6325" ry="18"/>
<text text-anchor="middle" x="1718" y="-99.8" font-family="Times,serif" font-size="14.00" fill="#000000">AdminService</text>
</g>
<!-- AdminService&#45;&gt;AdminModule -->
<g id="edge21" class="edge">
<title>AdminService&#45;&gt;AdminModule</title>
<path fill="none" stroke="#000000" d="M1718,-122.002C1718,-139.6754 1718,-164 1718,-164 1718,-164 2588.6558,-164 2588.6558,-164"/>
<polygon fill="#000000" stroke="#000000" points="2588.6558,-167.5001 2598.6558,-164 2588.6557,-160.5001 2588.6558,-167.5001"/>
</g>
<!-- ApiService -->
<g id="node23" class="node">
<title>ApiService</title>
<ellipse fill="#fdb462" stroke="#000000" cx="1579" cy="-104" rx="54.4508" ry="18"/>
<text text-anchor="middle" x="1579" y="-99.8" font-family="Times,serif" font-size="14.00" fill="#000000">ApiService</text>
</g>
<!-- ApiService&#45;&gt;AdminModule -->
<g id="edge22" class="edge">
<title>ApiService&#45;&gt;AdminModule</title>
<path fill="none" stroke="#000000" d="M1579,-122.2222C1579,-140.8285 1579,-167 1579,-167 1579,-167 2588.5839,-167 2588.5839,-167"/>
<polygon fill="#000000" stroke="#000000" points="2588.5839,-170.5001 2598.5839,-167 2588.5838,-163.5001 2588.5839,-170.5001"/>
</g>
<!-- ProfesionalResolveService -->
<g id="node24" class="node">
<title>ProfesionalResolveService</title>
<ellipse fill="#fdb462" stroke="#000000" cx="1391" cy="-104" rx="115.1628" ry="18"/>
<text text-anchor="middle" x="1391" y="-99.8" font-family="Times,serif" font-size="14.00" fill="#000000">ProfesionalResolveService</text>
</g>
<!-- ProfesionalResolveService&#45;&gt;AdminModule -->
<g id="edge23" class="edge">
<title>ProfesionalResolveService&#45;&gt;AdminModule</title>
<path fill="none" stroke="#000000" d="M1391,-122.1061C1391,-141.3391 1391,-169 1391,-169 1391,-169 2588.7241,-169 2588.7241,-169"/>
<polygon fill="#000000" stroke="#000000" points="2588.7241,-172.5001 2598.7241,-169 2588.7241,-165.5001 2588.7241,-172.5001"/>
</g>
<!-- CentrosSaludResolveService -->
<g id="node25" class="node">
<title>CentrosSaludResolveService</title>
<ellipse fill="#fdb462" stroke="#000000" cx="1135" cy="-104" rx="123.2707" ry="18"/>
<text text-anchor="middle" x="1135" y="-99.8" font-family="Times,serif" font-size="14.00" fill="#000000">CentrosSaludResolveService</text>
</g>
<!-- CentrosSaludResolveService&#45;&gt;AdminModule -->
<g id="edge24" class="edge">
<title>CentrosSaludResolveService&#45;&gt;AdminModule</title>
<path fill="none" stroke="#000000" d="M1135,-122.2228C1135,-142.3652 1135,-172 1135,-172 1135,-172 2588.52,-172 2588.52,-172"/>
<polygon fill="#000000" stroke="#000000" points="2588.52,-175.5001 2598.52,-172 2588.5199,-168.5001 2588.52,-175.5001"/>
</g>
<!-- MetadataResolveService -->
<g id="node26" class="node">
<title>MetadataResolveService</title>
<ellipse fill="#fdb462" stroke="#000000" cx="887" cy="-104" rx="107.0569" ry="18"/>
<text text-anchor="middle" x="887" y="-99.8" font-family="Times,serif" font-size="14.00" fill="#000000">MetadataResolveService</text>
</g>
<!-- MetadataResolveService&#45;&gt;AdminModule -->
<g id="edge25" class="edge">
<title>MetadataResolveService&#45;&gt;AdminModule</title>
<path fill="none" stroke="#000000" d="M887,-122.2843C887,-143.3211 887,-175 887,-175 887,-175 2588.5991,-175 2588.5991,-175"/>
<polygon fill="#000000" stroke="#000000" points="2588.5991,-178.5001 2598.5991,-175 2588.5991,-171.5001 2588.5991,-178.5001"/>
</g>
<!-- TipoTurnoResolveService -->
<g id="node27" class="node">
<title>TipoTurnoResolveService</title>
<ellipse fill="#fdb462" stroke="#000000" cx="649" cy="-104" rx="112.8829" ry="18"/>
<text text-anchor="middle" x="649" y="-99.8" font-family="Times,serif" font-size="14.00" fill="#000000">TipoTurnoResolveService</text>
</g>
<!-- TipoTurnoResolveService&#45;&gt;AdminModule -->
<g id="edge26" class="edge">
<title>TipoTurnoResolveService&#45;&gt;AdminModule</title>
<path fill="none" stroke="#000000" d="M649,-122.0449C649,-143.6623 649,-177 649,-177 649,-177 2588.5862,-177 2588.5862,-177"/>
<polygon fill="#000000" stroke="#000000" points="2588.5863,-180.5001 2598.5862,-177 2588.5862,-173.5001 2588.5863,-180.5001"/>
</g>
<!-- LoadingService -->
<g id="node28" class="node">
<title>LoadingService</title>
<ellipse fill="#fdb462" stroke="#000000" cx="446" cy="-104" rx="72.3516" ry="18"/>
<text text-anchor="middle" x="446" y="-99.8" font-family="Times,serif" font-size="14.00" fill="#000000">LoadingService</text>
</g>
<!-- LoadingService&#45;&gt;AdminModule -->
<g id="edge27" class="edge">
<title>LoadingService&#45;&gt;AdminModule</title>
<path fill="none" stroke="#000000" d="M446,-122.0109C446,-144.4852 446,-180 446,-180 446,-180 2588.6592,-180 2588.6592,-180"/>
<polygon fill="#000000" stroke="#000000" points="2588.6593,-183.5001 2598.6592,-180 2588.6592,-176.5001 2588.6593,-183.5001"/>
</g>
<!-- PagerService -->
<g id="node29" class="node">
<title>PagerService</title>
<ellipse fill="#fdb462" stroke="#000000" cx="294" cy="-104" rx="61.9538" ry="18"/>
<text text-anchor="middle" x="294" y="-99.8" font-family="Times,serif" font-size="14.00" fill="#000000">PagerService</text>
</g>
<!-- PagerService&#45;&gt;AdminModule -->
<g id="edge28" class="edge">
<title>PagerService&#45;&gt;AdminModule</title>
<path fill="none" stroke="#000000" d="M294,-122.0908C294,-145.1328 294,-182 294,-182 294,-182 2588.5621,-182 2588.5621,-182"/>
<polygon fill="#000000" stroke="#000000" points="2588.5622,-185.5001 2598.5621,-182 2588.5621,-178.5001 2588.5622,-185.5001"/>
</g>
<!-- TurnoResolveService -->
<g id="node30" class="node">
<title>TurnoResolveService</title>
<ellipse fill="#fdb462" stroke="#000000" cx="119" cy="-104" rx="94.9032" ry="18"/>
<text text-anchor="middle" x="119" y="-99.8" font-family="Times,serif" font-size="14.00" fill="#000000">TurnoResolveService</text>
</g>
<!-- TurnoResolveService&#45;&gt;AdminModule -->
<g id="edge29" class="edge">
<title>TurnoResolveService&#45;&gt;AdminModule</title>
<path fill="none" stroke="#000000" d="M119,-122.3802C119,-146.2785 119,-185 119,-185 119,-185 2588.6162,-185 2588.6162,-185"/>
<polygon fill="#000000" stroke="#000000" points="2588.6163,-188.5001 2598.6162,-185 2588.6162,-181.5001 2588.6163,-188.5001"/>
</g>
</g>
</svg>
